<?xml version="1.0" encoding="utf-8"?>
<svg xmlns="http://www.w3.org/2000/svg" viewBox="0 0 500 500" xmlns:bx="https://boxy-svg.com" width="500px" height="500px"><defs><bx:export><bx:file format="svg"/></bx:export></defs><path style="fill:#EF3D5A;" d="M 1005.99 462.693 C 1034.4 462.693 1014.69 424.572 1032.07 420.225 C 1030.15 419.712 1028.34 419.476 1026.64 419.476 C 1015.78 419.476 1012.55 429.087 1005.99 437.339 C 999.429 429.087 996.194 419.476 985.333 419.476 C 983.632 419.476 981.826 419.712 979.901 420.225 C 997.287 424.572 977.573 462.693 1005.99 462.693 Z"/><path style="fill:#EF3D5A;" d="M 1003.64 429.45 C 1004.4 430.574 1005.17 431.72 1005.99 432.853 C 1006.8 431.72 1007.58 430.574 1008.34 429.45 C 1010.27 426.59 1012.23 423.689 1014.66 421.352 C 1012.9 417.141 1009.83 413.464 1005.99 410.683 C 1002.14 413.464 999.077 417.141 997.314 421.352 C 999.742 423.689 1001.71 426.591 1003.64 429.45 Z"/><ellipse transform="matrix(0.229006, -0.973425, 0.973425, 0.229006, -177.986229, 1215.729305)" style="fill:#EF3D5A;" cx="1061.9" cy="966.471" rx="3.282" ry="3.282"/><ellipse transform="matrix(0.229006, -0.973425, 0.973425, 0.229006, -192.726829, 1253.648763)" style="fill:#EF3D5A;" cx="1096.65" cy="988.312" rx="3.282" ry="3.282"/><ellipse transform="matrix(0.77426, -0.632867, 0.632867, 0.77426, -429.221152, 297.310369)" style="fill:#EF3D5A;" cx="1027.16" cy="988.312" rx="3.283" ry="3.283"/><g transform="matrix(0.416667, 0, 0, 0.416667, 563.526376, 0.655265)"><path style="fill:#71C7F5;" d="M942.016,1053.844c-0.666-0.125-1.318-0.19-1.936-0.19c-3.379,0-6.565,1.665-8.523,4.453 l-2.561,3.646l-2.563-3.646c-1.958-2.788-5.146-4.453-8.524-4.453c-3.379,0-6.564,1.665-8.523,4.453l-2.562,3.647l-2.562-3.647 c-1.959-2.788-5.144-4.453-8.523-4.453c-3.378,0-6.566,1.665-8.524,4.453l-2.563,3.646l-2.561-3.646 c-1.958-2.788-5.144-4.453-8.523-4.453c-3.379,0-6.564,1.665-8.523,4.453l-2.561,3.646l-2.563-3.646 c-1.959-2.788-5.146-4.453-8.524-4.453c-0.701,0-1.404,0.071-2.088,0.211c-0.213,0.043-0.426,0.063-0.636,0.062v2.792 c0,28.693,21.13,52.169,46.957,52.169c25.826,0,46.957-23.476,46.957-52.169v-2.827 C942.398,1053.892,942.208,1053.88,942.016,1053.844z"/><path style="fill:#71C7F5;" d="M848.673,1047.637c0.9-0.149,1.811-0.243,2.724-0.243c4.12,0,8.058,1.54,11.086,4.238 c3.027-2.698,6.965-4.238,11.085-4.238c4.12,0,8.058,1.54,11.085,4.238c3.028-2.698,6.966-4.238,11.086-4.238 c4.12,0,8.058,1.54,11.085,4.238c3.027-2.698,6.965-4.238,11.085-4.238c4.12,0,8.058,1.54,11.086,4.238 c3.026-2.698,6.965-4.238,11.085-4.238c0.817,0,1.659,0.083,2.507,0.214v-24.914h-0.215c0.138-0.641,0.215-1.304,0.215-1.986 c0-5.187-4.205-9.391-9.391-9.391s-9.391,4.205-9.391,9.391c0,0.682,0.077,1.345,0.215,1.986h-0.429 c0.138-0.641,0.215-1.304,0.215-1.986c0-5.187-4.205-9.391-9.391-9.391s-9.391,4.205-9.391,9.391 c0,0.682,0.077,1.345,0.215,1.986h-0.429c0.138-0.641,0.215-1.304,0.215-1.986c0-5.187-4.205-9.391-9.391-9.391 c-5.187,0-9.391,4.205-9.391,9.391c0,0.682,0.077,1.345,0.215,1.986h-0.429c0.138-0.641,0.215-1.304,0.215-1.986 c0-5.187-4.205-9.391-9.391-9.391c-5.187,0-9.391,4.205-9.391,9.391c0,0.682,0.077,1.345,0.215,1.986h-0.429 c0.138-0.641,0.215-1.304,0.215-1.986c0-5.187-4.205-9.391-9.391-9.391c-5.187,0-9.391,4.205-9.391,9.391 c0,0.682,0.077,1.345,0.215,1.986h-0.215V1047.637z"/></g><g transform="matrix(0.416667, 0, 0, 0.416667, 563.526376, 0.655265)"><path style="fill:#71C7F5;" d="M855.926,987.086c-4.299,0.452-7.417,4.303-6.965,8.601c0.405,3.856,3.547,6.753,7.292,6.985 l2.654,25.251l2.594-0.273l-2.654-25.251c3.615-1.005,6.086-4.493,5.68-8.348C864.075,989.753,860.224,986.634,855.926,987.086z"/><path style="fill:#71C7F5;" d="M875.776,976.567c-4.316,0.226-7.632,3.909-7.406,8.225c0.203,3.871,3.189,6.929,6.916,7.357 l1.329,25.355l2.605-0.136l-1.329-25.355c3.662-0.815,6.312-4.168,6.109-8.039C883.775,979.657,880.093,976.341,875.776,976.567z "/><path style="fill:#71C7F5;" d="M895.63,971.485c-4.322,0-7.826,3.504-7.826,7.826c0,3.877,2.822,7.086,6.522,7.709v30.282h2.609 v-30.282c3.7-0.622,6.522-3.832,6.522-7.709C903.456,974.988,899.952,971.485,895.63,971.485z"/><path style="fill:#71C7F5;" d="M915.483,976.567c-4.316-0.226-7.999,3.089-8.225,7.406c-0.203,3.872,2.447,7.225,6.109,8.039 l-1.329,25.355l2.605,0.136l1.329-25.355c3.727-0.428,6.713-3.485,6.916-7.357C923.115,980.476,919.8,976.793,915.483,976.567z"/><path style="fill:#71C7F5;" d="M935.334,987.086c-4.299-0.452-8.149,2.667-8.601,6.965c-0.405,3.856,2.065,7.343,5.68,8.348 l-2.654,25.251l2.594,0.273l2.654-25.251c3.745-0.232,6.887-3.129,7.292-6.985C942.751,991.389,939.633,987.538,935.334,987.086z "/></g><g transform="matrix(0.416667, 0, 0, 0.416667, 563.526376, 0.655265)"><path style="fill:#A4D165;" d="M766.878,1000.092l-17.513,25.886l-16.879-29.031l-16.879,29.031l-17.513-25.886 c-9.331,12.28-41.826,108.796,34.392,108.796C808.704,1108.889,776.209,1012.372,766.878,1000.092z"/></g><g transform="matrix(0.416667, 0, 0, 0.416667, 563.526376, 0.655265)"><line style="fill:#A4D165;" x1="730.849" y1="973.329" x2="730.849" y2="988.981"/><path style="fill:#A4D165;" d="M736.067,973.329l-5.217,15.652l-5.217-15.652c-0.961-2.881,0.597-5.996,3.478-6.956 c2.882-0.961,5.996,0.597,6.957,3.478C736.458,971.024,736.431,972.239,736.067,973.329z"/></g><g transform="matrix(0.416667, 0, 0, 0.416667, 563.526376, 0.655265)"><line style="fill:#A4D165;" x1="707.954" y1="984.03" x2="712.005" y2="999.149"/><path style="fill:#A4D165;" d="M712.993,982.68l-0.989,16.469l-9.091-13.768c-1.674-2.535-0.976-5.946,1.559-7.62 c2.535-1.674,5.946-0.975,7.62,1.559C712.775,980.353,713.063,981.533,712.993,982.68z"/></g><g transform="matrix(0.416667, 0, 0, 0.416667, 563.526376, 0.655265)"><line style="fill:#A4D165;" x1="753.744" y1="984.03" x2="749.693" y2="999.149"/><path style="fill:#A4D165;" d="M758.784,985.38l-9.091,13.768l-0.989-16.469c-0.182-3.032,2.128-5.637,5.16-5.819 c3.032-0.182,5.637,2.128,5.819,5.16C759.758,983.256,759.417,984.422,758.784,985.38z"/></g><path style="fill:#AF7AC5;" d="M 794.838 422.328 C 795.315 420.475 795.84 418.641 796.404 416.85 C 795.242 414.427 794.013 412.104 792.742 409.975 C 792.079 412.476 791.517 415.164 791.057 417.934 C 792.426 419.251 793.662 420.745 794.838 422.328 Z"/><path style="fill:#AF7AC5;" d="M 812.185 417.934 C 811.725 415.163 811.164 412.475 810.501 409.974 C 809.229 412.104 808.001 414.426 806.839 416.85 C 807.403 418.641 807.927 420.475 808.405 422.328 C 809.581 420.745 810.817 419.251 812.185 417.934 Z"/><path style="fill:#AF7AC5;" d="M 796.738 459.771 C 795.346 458.029 794.241 456.091 793.427 453.961 C 792.295 450.995 791.722 447.661 791.722 443.969 C 791.722 438.59 792.578 432.124 794.03 425.676 C 792.908 424.068 791.782 422.546 790.57 421.188 C 790.195 420.767 789.811 420.363 789.417 419.976 C 789.042 419.609 788.658 419.257 788.262 418.925 C 785.67 416.753 782.574 415.378 778.384 415.378 C 777.809 415.378 777.223 415.404 776.629 415.456 C 782.275 419.439 782.799 427.971 783.309 436.266 C 784.001 447.53 784.663 458.247 795.936 460.809 C 796.57 460.953 797.244 461.066 797.948 461.156 C 797.523 460.709 797.119 460.248 796.738 459.771 Z"/><path style="fill:#AF7AC5;" d="M 824.858 415.378 C 820.668 415.378 817.572 416.753 814.981 418.925 C 814.585 419.257 814.201 419.609 813.826 419.976 C 813.432 420.363 813.048 420.767 812.672 421.188 C 811.461 422.546 810.334 424.068 809.212 425.676 C 810.664 432.124 811.521 438.59 811.521 443.969 C 811.521 447.661 810.948 450.996 809.815 453.961 C 809.002 456.091 807.897 458.029 806.504 459.771 C 806.123 460.248 805.719 460.709 805.295 461.157 C 805.998 461.066 806.673 460.953 807.307 460.809 C 818.58 458.248 819.242 447.531 819.934 436.266 C 820.444 427.971 820.968 419.44 826.613 415.457 C 826.02 415.404 825.434 415.378 824.858 415.378 Z"/><path style="fill:#AF7AC5;" d="M 806.477 425.396 C 806.089 423.734 805.664 422.076 805.199 420.443 C 805.014 419.79 804.822 419.143 804.625 418.499 C 804.436 417.881 804.24 417.27 804.042 416.662 C 803.295 414.38 802.486 412.178 801.622 410.125 C 800.757 412.178 799.947 414.38 799.202 416.662 C 799.003 417.27 798.807 417.881 798.618 418.499 C 798.422 419.143 798.229 419.79 798.044 420.443 C 797.579 422.076 797.154 423.734 796.766 425.396 C 795.24 431.925 794.331 438.524 794.331 443.969 C 794.331 449.17 795.576 453.566 798.029 457.116 C 798.698 458.084 799.457 458.988 800.306 459.828 C 800.614 460.132 800.932 460.429 801.263 460.716 C 801.383 460.82 801.498 460.928 801.622 461.03 C 801.745 460.928 801.86 460.82 801.98 460.715 C 802.311 460.428 802.63 460.132 802.937 459.828 C 803.786 458.987 804.546 458.083 805.214 457.116 C 807.668 453.565 808.913 449.169 808.913 443.969 C 808.912 438.524 808.003 431.926 806.477 425.396 Z"/><path style="fill:#FF8343;" d="M 736.474 455.219 C 735.389 457.339 733.979 459.06 732.241 460.402 C 737.092 459.489 740.642 457.937 742.957 455.717 C 746.399 452.418 746.937 447.939 747.506 443.198 C 748.281 436.744 749.145 429.542 758.171 425.549 C 756.806 425.371 755.465 425.281 754.156 425.281 C 748.49 425.281 744.151 426.923 740.502 429.589 C 740.165 432.026 739.999 434.705 739.827 437.5 C 739.444 443.741 739.047 450.194 736.474 455.219 Z"/><path style="fill:#FF8343;" d="M 702.989 455.219 C 700.415 450.194 700.019 443.741 699.636 437.501 C 699.464 434.706 699.298 432.026 698.961 429.589 C 695.312 426.923 690.973 425.282 685.306 425.282 C 683.997 425.282 682.656 425.371 681.291 425.549 C 690.317 429.543 691.181 436.744 691.956 443.198 C 692.526 447.939 693.063 452.418 696.505 455.718 C 698.821 457.938 702.371 459.489 707.221 460.403 C 705.484 459.06 704.074 457.339 702.989 455.219 Z"/><path style="fill:#FF8343;" d="M 710.191 444.725 C 710.191 443.506 710.239 442.227 710.328 440.906 C 710.337 440.761 710.346 440.618 710.356 440.472 C 710.405 439.809 710.465 439.135 710.534 438.452 C 710.897 434.865 711.539 431.034 712.4 427.208 C 708.617 421.79 704.791 417.384 697.467 417.384 C 696.965 417.384 696.456 417.405 695.939 417.446 C 699.157 419.786 700.609 423.688 701.362 428.156 C 701.469 428.791 701.563 429.437 701.645 430.093 C 701.725 430.734 701.794 431.383 701.856 432.037 C 702.021 433.782 702.131 435.567 702.24 437.34 C 702.936 448.668 703.605 459.412 716.062 461.118 C 712.165 456.949 710.191 451.454 710.191 444.725 Z"/><path style="fill:#FF8343;" d="M 741.996 417.384 C 734.672 417.384 730.846 421.79 727.063 427.209 C 727.924 431.034 728.566 434.865 728.929 438.452 C 728.998 439.135 729.058 439.809 729.107 440.472 C 729.117 440.618 729.126 440.761 729.135 440.906 C 729.224 442.226 729.272 443.506 729.272 444.724 C 729.272 451.453 727.298 456.949 723.402 461.118 C 735.858 459.412 736.528 448.668 737.224 437.34 C 737.332 435.567 737.443 433.783 737.607 432.037 C 737.669 431.383 737.739 430.734 737.819 430.093 C 737.901 429.437 737.994 428.791 738.102 428.156 C 738.855 423.688 740.307 419.786 743.524 417.446 C 743.007 417.405 742.498 417.384 741.996 417.384 Z"/><path style="fill:#FF8343;" d="M 726.51 440.752 C 726.204 436.444 725.437 431.669 724.329 426.929 C 723.139 421.844 721.561 416.804 719.731 412.438 C 717.902 416.804 716.323 421.844 715.134 426.929 C 714.025 431.67 713.259 436.445 712.952 440.752 C 712.854 442.129 712.8 443.461 712.8 444.725 C 712.8 451.701 715.131 457.172 719.731 461.002 C 724.331 457.171 726.662 451.701 726.662 444.725 C 726.662 443.461 726.608 442.129 726.51 440.752 Z"/><path style="fill:#F0588D;" d="M 622.5 428.648 C 626.487 433.21 633.316 433.452 637.751 429.188 C 635.33 423.532 628.948 421.091 623.497 423.736 C 622.432 424.253 621.484 424.928 620.661 425.718 C 621.11 426.766 621.721 427.757 622.5 428.648 Z"/><path style="fill:#F0588D;" d="M 641.154 412.828 C 646.742 418.205 649.504 425.212 649.164 431.53 C 656.128 424.145 656.396 413.03 649.724 406.61 C 643.865 400.972 634.592 400.82 627.603 405.772 C 632.329 406.586 637.135 408.96 641.154 412.828 Z"/><path style="fill:#F0588D;" d="M 619.243 453.498 C 611.583 453.881 604.68 451.413 600.381 447.331 C 600.936 456.411 608.723 463.376 617.867 462.919 C 625.898 462.518 632.319 456.526 633.525 448.916 C 629.725 451.52 624.751 453.223 619.243 453.498 Z"/><path style="fill:#F0588D;" d="M 607.989 436.837 C 603.023 430.542 601.124 423.02 602.276 416.663 C 594.283 423.105 592.591 434.337 598.521 441.852 C 603.729 448.453 613.094 450.003 620.8 446.032 C 616.121 444.496 611.561 441.364 607.989 436.837 Z"/><path style="fill:#F0588D;" d="M 649.848 441.759 C 645.391 448.624 639.021 453.107 632.924 454.355 C 640.867 459.382 651.55 456.862 656.871 448.665 C 661.545 441.466 660.537 432.271 654.923 426.61 C 654.731 431.481 653.054 436.821 649.848 441.759 Z"/><path style="fill:#F0588D;" d="M 637.656 436.38 C 634.427 440.539 630.132 443.368 625.483 444.782 C 633.066 447.47 640.519 446.464 644.327 441.559 C 648.135 436.653 647.262 429.184 642.778 422.504 C 642.561 427.359 640.885 432.221 637.656 436.38 Z"/><path style="fill:#F0588D;" d="M 629.689 418.661 C 633.913 418.661 637.891 419.612 641.386 421.284 C 638.651 414.581 634.326 410.252 629.457 410.252 C 624.519 410.252 620.139 414.705 617.411 421.57 C 621.044 419.72 625.229 418.661 629.689 418.661 Z"/><path style="fill:#F0588D;" d="M 620.886 432.623 C 617.687 429.864 615.296 426.546 613.74 422.996 C 611.435 429.859 611.882 435.962 615.57 439.142 C 619.31 442.367 625.534 441.854 632.084 438.437 C 628.125 437.466 624.263 435.535 620.886 432.623 Z"/><path style="fill:#F0588D;" d="M 615.907 412.466 C 620.513 406.794 626.223 402.756 632.092 400.566 C 622.451 397.406 612.982 398.854 607.838 405.187 C 602.844 411.337 603.2 420.534 607.867 429.108 C 609.021 423.431 611.706 417.638 615.907 412.466 Z"/><path style="fill:#48D2B0;" d="M 1002.74 325.634 C 993.787 325.634 986.5 332.92 986.5 341.877 C 986.5 350.833 993.786 358.12 1002.74 358.12 C 1011.7 358.12 1018.99 350.833 1018.99 341.877 C 1018.99 332.92 1011.7 325.634 1002.74 325.634 Z M 1002.74 354.063 C 996.013 354.063 990.558 348.607 990.558 341.877 C 990.558 335.148 996.013 329.692 1002.74 329.692 C 1009.47 329.692 1014.93 335.148 1014.93 341.877 C 1014.93 348.607 1009.47 354.063 1002.74 354.063 Z"/><path style="fill:#48D2B0;" d="M 1025.26 338.31 C 1038.71 336.179 1035.19 325.342 1023.06 331.526 C 1035.19 325.342 1028.5 316.124 1018.87 325.755 C 1028.5 316.124 1019.28 309.426 1013.09 321.562 C 1019.28 309.426 1008.44 305.905 1006.31 319.358 C 1008.44 305.905 997.045 305.905 999.176 319.358 C 997.045 305.905 986.208 309.426 992.392 321.562 C 986.208 309.426 976.99 316.124 986.621 325.755 C 976.99 316.124 970.293 325.343 982.428 331.526 C 970.293 325.342 966.771 336.179 980.224 338.31 C 966.771 336.179 966.771 347.574 980.224 345.443 C 966.771 347.574 970.293 358.411 982.428 352.228 C 970.293 358.411 976.99 367.63 986.621 357.998 C 976.99 367.63 986.209 374.327 992.392 362.191 C 986.208 374.328 997.045 377.848 999.176 364.396 C 997.045 377.848 1008.44 377.848 1006.31 364.396 C 1008.44 377.848 1019.28 374.327 1013.09 362.191 C 1019.28 374.328 1028.5 367.63 1018.87 357.998 C 1028.5 367.63 1035.19 358.411 1023.06 352.228 C 1035.19 358.411 1038.71 347.574 1025.26 345.443 C 1038.71 347.574 1038.71 336.179 1025.26 338.31 Z M 1002.74 360.728 C 992.348 360.728 983.891 352.271 983.891 341.876 C 983.891 331.481 992.348 323.025 1002.74 323.025 C 1013.14 323.025 1021.6 331.481 1021.6 341.876 C 1021.6 352.271 1013.14 360.728 1002.74 360.728 Z"/><path style="fill:#F0588D;" d="M 950.772 337.16 C 962.629 334.801 957.214 321.726 947.161 328.443 C 957.214 321.727 947.207 311.72 940.49 321.772 C 947.207 311.72 934.132 306.304 931.774 318.162 C 934.133 306.304 919.98 306.304 922.339 318.162 C 919.98 306.304 906.906 311.72 913.623 321.772 C 906.906 311.72 896.899 321.727 906.952 328.443 C 896.899 321.727 891.483 334.801 903.341 337.16 C 891.484 334.801 891.484 348.953 903.341 346.594 C 891.484 348.953 896.899 362.028 906.952 355.311 C 896.899 362.027 906.906 372.034 913.623 361.982 C 906.906 372.034 919.981 377.45 922.339 365.592 C 919.98 377.45 934.133 377.45 931.774 365.592 C 934.133 377.45 947.207 372.034 940.49 361.982 C 947.207 372.034 957.214 362.027 947.161 355.311 C 957.214 362.027 962.629 348.953 950.772 346.594 C 962.63 348.953 962.63 334.801 950.772 337.16 Z M 942.234 344.896 C 949.823 346.406 946.357 354.773 939.923 350.474 C 946.357 354.773 939.953 361.178 935.654 354.744 C 939.953 361.178 931.585 364.643 930.075 357.055 C 931.585 364.643 922.528 364.643 924.037 357.055 C 922.528 364.643 914.16 361.178 918.459 354.744 C 914.16 361.178 907.755 354.773 914.189 350.474 C 907.755 354.773 904.29 346.405 911.878 344.896 C 904.289 346.406 904.289 337.348 911.878 338.858 C 904.289 337.348 907.755 328.981 914.189 333.279 C 907.755 328.981 914.16 322.576 918.459 329.01 C 914.16 322.576 922.528 319.11 924.037 326.699 C 922.528 319.11 931.585 319.11 930.075 326.699 C 931.585 319.11 939.953 322.576 935.654 329.01 C 939.953 322.576 946.357 328.981 939.923 333.279 C 946.357 328.981 949.823 337.348 942.234 338.858 C 949.823 337.348 949.823 346.406 942.234 344.896 Z"/><ellipse transform="matrix(0.707107, -0.707107, 0.707107, 0.707107, -268.950119, 379.735527)" style="fill:#F0588D;" cx="872.471" cy="818.931" rx="13.043" ry="13.043"/><path style="fill:#AF7AC5;" d="M 883.979 341.877 C 883.979 338.366 881.337 335.476 877.935 335.075 C 877.884 334.878 877.825 334.685 877.771 334.49 C 880.522 332.442 881.367 328.615 879.61 325.573 C 877.852 322.528 874.114 321.347 870.964 322.708 C 870.824 322.565 870.682 322.423 870.539 322.283 C 871.9 319.133 870.718 315.394 867.674 313.637 C 864.632 311.88 860.805 312.725 858.757 315.476 C 858.562 315.421 858.369 315.362 858.172 315.312 C 857.771 311.909 854.881 309.268 851.37 309.268 C 847.859 309.268 844.969 311.909 844.568 315.312 C 844.371 315.363 844.178 315.421 843.983 315.476 C 841.935 312.725 838.108 311.881 835.066 313.637 C 832.022 315.395 830.84 319.133 832.202 322.283 C 832.058 322.423 831.917 322.565 831.777 322.708 C 828.627 321.347 824.888 322.529 823.13 325.573 C 821.374 328.616 822.218 332.442 824.969 334.49 C 824.915 334.685 824.856 334.878 824.805 335.075 C 821.402 335.476 818.761 338.366 818.761 341.877 C 818.761 345.388 821.402 348.278 824.805 348.679 C 824.856 348.876 824.915 349.069 824.969 349.264 C 822.218 351.312 821.374 355.139 823.13 358.181 C 824.888 361.226 828.627 362.407 831.777 361.046 C 831.917 361.189 832.058 361.33 832.202 361.471 C 830.84 364.621 832.022 368.359 835.066 370.117 C 838.108 371.873 841.935 371.029 843.983 368.278 C 844.178 368.333 844.371 368.391 844.568 368.442 C 844.969 371.845 847.859 374.486 851.37 374.486 C 854.881 374.486 857.771 371.845 858.172 368.442 C 858.369 368.391 858.562 368.333 858.757 368.278 C 860.805 371.029 864.632 371.873 867.674 370.117 C 870.718 368.359 871.9 364.621 870.538 361.471 C 870.682 361.331 870.823 361.189 870.963 361.046 C 874.113 362.407 877.852 361.225 879.61 358.181 C 881.366 355.139 880.522 351.312 877.771 349.264 C 877.825 349.069 877.884 348.876 877.934 348.679 C 881.337 348.278 883.979 345.388 883.979 341.877 Z M 868.647 330.558 C 869.117 331.273 869.545 332.025 869.921 332.791 L 864.065 335.663 C 863.809 335.138 863.515 334.624 863.195 334.136 L 868.647 330.558 Z M 850.29 321.253 C 851.123 321.209 851.955 321.215 852.787 321.272 L 852.35 327.779 C 851.786 327.741 851.224 327.737 850.66 327.765 C 850.623 327.767 850.587 327.769 850.551 327.771 L 850.402 324.513 L 850.26 321.255 L 850.255 321.256 L 850.17 321.261 L 850.29 321.253 Z M 842.306 323.315 L 845.167 329.175 C 844.645 329.43 844.132 329.722 843.642 330.043 L 840.069 324.587 C 840.787 324.117 841.539 323.689 842.306 323.315 Z M 830.751 343.042 L 830.746 342.956 C 830.727 342.59 830.717 342.225 830.717 341.861 C 830.717 341.39 830.734 340.91 830.766 340.437 L 837.272 340.882 C 837.25 341.208 837.239 341.537 837.239 341.861 C 837.239 342.112 837.245 342.364 837.259 342.618 L 837.261 342.674 L 835.105 342.748 L 830.751 343.042 Z M 834.067 353.158 C 833.6 352.441 833.172 351.689 832.798 350.921 L 838.661 348.065 C 838.916 348.589 839.208 349.102 839.528 349.593 L 834.067 353.158 Z M 838.76 335.494 L 832.943 332.544 C 833.33 331.782 833.769 331.036 834.249 330.326 L 839.652 333.978 C 839.324 334.463 839.024 334.973 838.76 335.494 Z M 842.017 360.293 C 841.253 359.905 840.507 359.465 839.8 358.985 L 843.46 353.586 C 843.943 353.914 844.452 354.215 844.975 354.48 L 842.017 360.293 Z M 852.45 362.501 C 852.083 362.52 851.718 362.529 851.355 362.529 C 850.875 362.529 850.389 362.512 849.907 362.479 L 850.358 355.973 C 850.942 356.014 851.525 356.019 852.111 355.988 L 852.28 355.984 L 852.28 358.968 L 852.516 362.498 L 852.45 362.501 Z M 851.37 352.746 C 845.367 352.746 840.5 347.88 840.5 341.877 C 840.5 335.874 845.367 331.007 851.37 331.007 C 857.373 331.007 862.24 335.874 862.24 341.877 C 862.24 347.88 857.373 352.746 851.37 352.746 Z M 860.395 360.458 L 857.542 354.593 C 858.068 354.337 858.583 354.046 859.071 353.727 L 862.632 359.191 C 861.917 359.657 861.165 360.083 860.395 360.458 Z M 859.257 330.151 C 858.772 329.823 858.26 329.524 857.738 329.259 L 860.684 323.441 C 861.447 323.826 862.193 324.265 862.902 324.743 L 859.257 330.151 Z M 868.466 353.465 L 863.07 349.802 C 863.4 349.317 863.701 348.808 863.967 348.286 L 869.775 351.252 C 869.387 352.013 868.946 352.758 868.466 353.465 Z M 871.97 343.365 L 865.465 342.899 C 865.489 342.567 865.501 342.228 865.501 341.892 C 865.501 341.641 865.495 341.39 865.481 341.136 L 865.477 341.057 L 871.991 340.726 L 871.995 340.804 C 872.014 341.164 872.023 341.529 872.023 341.893 C 872.022 342.382 872.005 342.878 871.97 343.365 Z"/><path style="fill:#71C7F5;" d="M 797.338 341.877 C 814.181 341.877 806.829 319.248 793.202 329.148 C 806.828 319.248 787.579 305.263 782.375 321.282 C 787.579 305.263 763.787 305.263 768.992 321.282 C 763.787 305.263 744.538 319.248 758.164 329.148 C 744.538 319.248 737.186 341.877 754.028 341.877 C 737.186 341.877 744.538 364.505 758.164 354.605 C 744.538 364.505 763.787 378.49 768.992 362.472 C 763.787 378.49 787.58 378.49 782.375 362.472 C 787.579 378.49 806.828 364.505 793.202 354.605 C 806.828 364.505 814.181 341.877 797.338 341.877 Z M 782.372 325.77 C 782.697 325.127 783.481 324.869 784.124 325.193 C 785.744 326.012 787.231 327.056 788.543 328.3 C 789.066 328.795 789.088 329.621 788.592 330.144 C 788.336 330.414 787.991 330.551 787.645 330.551 C 787.323 330.551 787.001 330.433 786.748 330.193 C 785.62 329.125 784.342 328.226 782.948 327.522 C 782.305 327.197 782.047 326.413 782.372 325.77 Z M 772.711 323.414 C 774.487 323.128 776.319 323.101 778.113 323.338 C 778.827 323.432 779.33 324.088 779.236 324.802 C 779.142 325.516 778.486 326.018 777.772 325.925 C 776.229 325.722 774.654 325.743 773.127 325.99 C 773.057 326.001 772.987 326.007 772.918 326.007 C 772.289 326.007 771.735 325.551 771.632 324.91 C 771.517 324.198 772 323.529 772.711 323.414 Z M 757.211 338.986 C 757.492 337.198 758.029 335.463 758.808 333.828 C 759.117 333.178 759.897 332.902 760.546 333.211 C 761.197 333.521 761.473 334.3 761.163 334.95 C 760.493 336.358 760.031 337.852 759.788 339.391 C 759.687 340.034 759.132 340.493 758.502 340.493 C 758.434 340.493 758.366 340.488 758.297 340.477 C 757.585 340.365 757.099 339.698 757.211 338.986 Z M 760.794 350.943 C 760.599 351.044 760.391 351.092 760.186 351.092 C 759.723 351.092 759.278 350.845 759.046 350.405 C 759.037 350.389 759.017 350.348 759.009 350.332 C 758.204 348.753 757.622 347.043 757.295 345.28 C 757.164 344.571 757.631 343.891 758.339 343.76 C 759.047 343.626 759.729 344.096 759.86 344.804 C 760.141 346.321 760.642 347.793 761.349 349.181 C 761.675 349.819 761.43 350.613 760.794 350.943 Z M 762.432 328.682 C 763.705 327.404 765.16 326.316 766.757 325.449 C 767.39 325.106 768.182 325.34 768.526 325.973 C 768.869 326.606 768.635 327.398 768.002 327.742 C 766.627 328.488 765.374 329.424 764.28 330.523 C 764.025 330.779 763.69 330.907 763.356 330.907 C 763.023 330.907 762.69 330.781 762.435 330.527 C 761.925 330.018 761.923 329.193 762.432 328.682 Z M 768.969 357.973 C 768.739 358.426 768.281 358.688 767.804 358.688 C 767.606 358.688 767.405 358.643 767.216 358.547 C 765.597 357.726 764.112 356.679 762.802 355.434 C 762.28 354.938 762.259 354.112 762.755 353.59 C 763.251 353.067 764.077 353.046 764.599 353.543 C 765.726 354.613 767.003 355.514 768.395 356.22 C 769.038 356.546 769.295 357.331 768.969 357.973 Z M 778.626 360.345 C 777.662 360.498 776.677 360.576 775.697 360.576 C 774.873 360.576 774.041 360.521 773.224 360.412 C 772.51 360.317 772.009 359.661 772.104 358.946 C 772.199 358.233 772.856 357.734 773.569 357.826 C 775.105 358.031 776.687 358.012 778.214 357.768 C 778.926 357.654 779.594 358.139 779.708 358.851 C 779.822 359.562 779.337 360.231 778.626 360.345 Z M 775.683 352.746 C 769.68 352.746 764.814 347.88 764.814 341.877 C 764.814 335.874 769.68 331.007 775.683 331.007 C 781.687 331.007 786.553 335.874 786.553 341.877 C 786.553 347.88 781.687 352.746 775.683 352.746 Z M 788.914 355.093 C 787.639 356.369 786.182 357.455 784.584 358.319 C 784.387 358.426 784.174 358.476 783.964 358.476 C 783.501 358.476 783.052 358.228 782.816 357.792 C 782.473 357.158 782.709 356.367 783.342 356.024 C 784.719 355.28 785.972 354.346 787.069 353.249 C 787.577 352.739 788.404 352.738 788.913 353.248 C 789.423 353.757 789.423 354.583 788.914 355.093 Z M 789.993 334.527 C 789.664 333.886 789.918 333.1 790.559 332.771 C 791.199 332.442 791.986 332.696 792.314 333.336 L 792.339 333.385 C 793.167 335.009 793.751 336.73 794.077 338.503 C 794.207 339.211 793.738 339.891 793.03 340.021 C 792.95 340.036 792.871 340.043 792.792 340.043 C 792.175 340.043 791.627 339.603 791.511 338.974 C 791.231 337.45 790.728 335.968 790.017 334.573 L 789.993 334.527 Z M 794.151 344.798 C 793.867 346.585 793.327 348.319 792.546 349.953 C 792.322 350.421 791.855 350.695 791.368 350.695 C 791.179 350.695 790.988 350.653 790.807 350.567 C 790.157 350.256 789.882 349.477 790.192 348.827 C 790.865 347.421 791.329 345.927 791.574 344.388 C 791.688 343.676 792.356 343.191 793.067 343.305 C 793.779 343.418 794.264 344.086 794.151 344.798 Z"/><path style="fill:#FFB312;" d="M 718.036 334.405 C 737.462 326.358 715.516 304.411 707.469 323.838 C 715.515 304.411 684.478 304.411 692.525 323.838 C 684.478 304.411 662.531 326.358 681.958 334.405 C 662.531 326.358 662.531 357.395 681.958 349.348 C 662.531 357.395 684.478 379.342 692.525 359.916 C 684.478 379.342 715.515 379.342 707.469 359.916 C 715.515 379.342 737.462 357.395 718.036 349.348 C 737.462 357.396 737.462 326.358 718.036 334.405 Z M 710.399 327.694 C 711.412 326.673 713.064 326.668 714.086 327.681 C 715.108 328.699 715.117 330.351 714.099 331.372 C 713.591 331.886 712.921 332.142 712.251 332.142 C 711.586 332.142 710.921 331.89 710.412 331.385 C 709.39 330.368 709.381 328.716 710.399 327.694 Z M 699.934 321.877 C 701.377 321.873 702.546 323.038 702.551 324.477 C 702.555 325.916 701.39 327.09 699.951 327.094 C 699.946 327.094 699.946 327.094 699.942 327.094 C 698.507 327.094 697.338 325.933 697.334 324.494 C 697.329 323.051 698.494 321.881 699.934 321.877 Z M 685.816 327.773 C 686.833 326.751 688.486 326.747 689.507 327.76 C 690.529 328.777 690.534 330.429 689.516 331.451 C 689.007 331.964 688.338 332.22 687.668 332.22 C 687.003 332.22 686.338 331.968 685.829 331.459 C 684.808 330.443 684.803 328.795 685.816 327.773 Z M 682.612 344.521 C 682.608 344.521 682.608 344.521 682.603 344.521 C 681.169 344.521 679.999 343.356 679.999 341.916 C 679.994 340.477 681.16 339.307 682.599 339.303 C 684.042 339.299 685.212 340.464 685.216 341.908 C 685.216 343.347 684.051 344.516 682.612 344.521 Z M 689.564 356.034 C 689.055 356.547 688.386 356.803 687.716 356.803 C 687.051 356.803 686.386 356.547 685.877 356.042 C 684.855 355.025 684.855 353.373 685.872 352.351 C 686.89 351.329 688.538 351.329 689.559 352.347 C 690.581 353.364 690.581 355.016 689.564 356.034 Z M 700.016 361.877 C 698.577 361.877 697.407 360.712 697.407 359.268 C 697.403 357.83 698.572 356.66 700.011 356.66 C 701.451 356.656 702.62 357.825 702.625 359.264 C 702.625 360.703 701.46 361.873 700.016 361.877 Z M 699.997 352.746 C 693.994 352.746 689.127 347.88 689.127 341.877 C 689.127 335.874 693.994 331.007 699.997 331.007 C 706 331.007 710.866 335.874 710.866 341.877 C 710.866 347.88 706 352.746 699.997 352.746 Z M 714.147 356.012 C 713.638 356.521 712.968 356.777 712.299 356.777 C 711.633 356.777 710.964 356.521 710.455 356.012 C 709.437 354.994 709.437 353.342 710.455 352.325 C 711.472 351.303 713.124 351.303 714.142 352.321 C 715.164 353.342 715.164 354.99 714.147 356.012 Z M 717.39 344.486 C 715.947 344.486 714.782 343.317 714.782 341.877 L 714.782 341.873 C 714.777 341.856 714.777 341.834 714.777 341.817 C 714.773 340.373 715.938 339.199 717.377 339.195 C 718.816 339.191 719.99 340.352 719.994 341.795 C 719.994 341.808 719.994 341.825 719.994 341.843 C 719.994 341.851 719.994 341.865 719.994 341.877 C 719.994 341.877 719.994 341.877 719.999 341.877 C 719.999 343.316 718.829 344.486 717.39 344.486 Z"/><ellipse transform="matrix(0.923877, -0.38269, 0.38269, 0.923877, 174.37692, -361.223445)" style="fill:#EF3D5A;" cx="145.881" cy="823.549" rx="7.838" ry="7.838"/><path style="fill:#EF3D5A;" d="M 620.125 354.418 C 616.772 353.091 614.189 350.229 613.262 346.696 C 608.843 346.437 604.388 348.361 601.593 352.209 C 597.231 358.213 598.562 366.616 604.566 370.977 C 610.008 374.932 617.423 374.207 622.011 369.563 C 618.928 364.956 618.39 359.329 620.125 354.418 Z"/><path style="fill:#EF3D5A;" d="M 633.114 351.062 C 630.816 353.841 627.296 355.414 623.649 355.203 C 622.038 359.326 622.491 364.157 625.286 368.004 C 629.649 374.008 638.051 375.339 644.055 370.977 C 649.498 367.022 651.1 359.746 648.101 353.948 C 642.766 355.457 637.249 354.23 633.114 351.062 Z"/><path style="fill:#EF3D5A;" d="M 633.936 337.672 C 635.869 340.716 636.277 344.55 634.95 347.953 C 638.373 350.76 643.108 351.821 647.631 350.351 C 654.688 348.058 658.551 340.478 656.257 333.42 C 654.179 327.022 647.754 323.25 641.313 324.31 C 641.099 329.85 638.227 334.718 633.936 337.672 Z"/><path style="fill:#EF3D5A;" d="M 621.456 332.752 C 624.949 331.855 628.721 332.651 631.547 334.965 C 635.275 332.576 637.747 328.401 637.747 323.646 C 637.747 316.225 631.731 310.209 624.311 310.209 C 617.583 310.209 612.01 315.154 611.028 321.607 C 616.23 323.523 619.972 327.758 621.456 332.752 Z"/><path style="fill:#EF3D5A;" d="M 612.92 343.101 C 613.146 339.503 615.069 336.161 618.143 334.188 C 617.024 329.905 613.817 326.263 609.294 324.794 C 602.237 322.501 594.656 326.363 592.363 333.421 C 590.284 339.819 593.265 346.647 599.098 349.575 C 602.528 345.219 607.713 342.969 612.92 343.101 Z"/><g transform="matrix(7.419504, 0, 0, 7.419504, -3093.712448, -78.250444)" style=""><path style="fill: rgb(228, 123, 83);" d="M 465.185 44.396 C 480.969 43.669 486.13 39.226 481.709 37.717 C 482.729 36.652 482.532 35.737 481.185 35.256 C 484.595 31.762 477.895 30.172 463.359 37.08 C 476.665 28.558 478.913 22.129 474.33 23.034 C 474.681 21.602 474.053 20.908 472.645 21.164 C 473.852 16.434 467.255 18.406 458.12 31.657 C 465.382 17.624 464.115 10.932 460.598 14.007 C 460.186 12.592 459.295 12.304 458.204 13.231 C 456.884 8.53 452.157 13.537 450.871 29.58 C 450.144 13.796 445.701 8.634 444.192 13.056 C 443.127 12.036 442.212 12.232 441.731 13.58 C 438.237 10.169 436.647 16.869 443.555 31.405 C 435.033 18.099 428.605 15.851 429.509 20.434 C 428.077 20.084 427.383 20.712 427.64 22.119 C 422.909 20.913 424.881 27.51 438.132 36.644 C 424.099 29.382 417.407 30.649 420.482 34.166 C 419.067 34.579 418.78 35.469 419.706 36.56 C 415.005 37.88 420.012 42.608 436.055 43.893 C 420.271 44.62 415.11 49.064 419.531 50.572 C 418.511 51.637 418.708 52.552 420.055 53.033 C 416.645 56.527 423.345 58.117 437.881 51.209 C 424.575 59.731 422.327 66.159 426.91 65.255 C 426.559 66.687 427.187 67.381 428.595 67.124 C 427.388 71.855 433.985 69.883 443.12 56.632 C 435.858 70.665 437.125 77.357 440.642 74.282 C 441.055 75.697 441.945 75.984 443.036 75.058 C 444.356 79.759 449.084 74.752 450.369 58.709 C 451.096 74.493 455.54 79.654 457.048 75.233 C 458.113 76.253 459.028 76.057 459.51 74.709 C 463.003 78.119 464.593 71.42 457.686 56.884 C 466.207 70.189 472.636 72.438 471.732 67.854 C 473.164 68.205 473.858 67.577 473.601 66.169 C 478.332 67.377 476.36 60.779 463.109 51.644 C 477.142 58.906 483.833 57.639 480.758 54.122 C 482.174 53.71 482.461 52.819 481.535 51.728 C 486.234 50.409 481.227 45.682 465.185 44.396 Z"/><path style="fill: rgb(240, 206, 86);" d="M 463.853 42.282 C 478.05 39.358 482.089 34.592 477.867 33.859 C 478.638 32.748 478.329 31.947 477.038 31.704 C 479.627 28.049 473.328 27.569 461.149 35.915 C 471.982 26.284 473.097 20.137 469.073 21.614 C 469.185 20.265 468.517 19.727 467.278 20.161 C 467.693 15.702 461.998 18.436 455.623 31.752 C 460.189 17.995 458.081 12.114 455.335 15.405 C 454.758 14.181 453.91 14.049 453.055 15.044 C 451.184 10.975 447.619 16.19 448.757 30.911 C 445.832 16.713 441.066 12.674 440.334 16.897 C 439.223 16.126 438.422 16.435 438.179 17.725 C 434.524 15.137 434.044 21.435 442.39 33.615 C 432.758 22.782 426.611 21.667 428.088 25.69 C 426.74 25.578 426.201 26.246 426.636 27.485 C 422.176 27.07 424.91 32.765 438.227 39.14 C 424.47 34.574 418.589 36.682 421.88 39.428 C 420.656 40.005 420.523 40.853 421.519 41.709 C 417.45 43.579 422.665 47.144 437.385 46.007 C 423.188 48.931 419.149 53.697 423.372 54.429 C 422.6 55.54 422.91 56.341 424.2 56.584 C 421.611 60.239 427.91 60.719 440.09 52.374 C 429.256 62.005 428.142 68.152 432.165 66.675 C 432.052 68.023 432.721 68.562 433.96 68.127 C 433.545 72.587 439.24 69.853 445.615 56.536 C 441.049 70.293 443.157 76.174 445.902 72.883 C 446.48 74.107 447.327 74.239 448.183 73.244 C 450.054 77.313 453.619 72.098 452.481 57.377 C 455.405 71.575 460.172 75.614 460.904 71.391 C 462.015 72.162 462.816 71.853 463.059 70.563 C 466.714 73.152 467.193 66.853 458.848 54.673 C 468.48 65.507 474.627 66.621 473.15 62.598 C 474.498 62.71 475.037 62.042 474.602 60.803 C 479.062 61.218 476.327 55.523 463.01 49.148 C 476.768 53.714 482.649 51.606 479.358 48.86 C 480.582 48.283 480.714 47.435 479.718 46.579 C 483.788 44.71 478.573 41.145 463.853 42.282 Z"/><ellipse transform="matrix(0.233702, -0.972308, 0.972308, 0.233702, -380.258625, 926.337025)" style="fill: rgb(115, 65, 55);" cx="1051.92" cy="601.717" rx="16.292" ry="16.292"/></g><path style="fill:#FFB312;" d="M 957.313 251.642 C 961.371 248.941 957.334 245.035 945.594 246.365 C 956.506 241.836 958.143 236.463 953.285 236.068 C 955.449 231.7 950 230.335 940.498 237.356 C 947.683 227.978 946.415 222.506 942.009 224.593 C 941.699 219.729 936.298 221.272 931.579 232.103 C 933.113 220.388 929.278 216.284 926.507 220.294 C 923.806 216.236 919.9 220.273 921.23 232.013 C 916.701 221.101 911.327 219.464 910.932 224.322 C 906.565 222.158 905.2 227.608 912.221 237.11 C 902.843 229.924 897.371 231.193 899.458 235.598 C 894.594 235.908 896.137 241.309 906.968 246.028 C 895.254 244.494 891.149 248.329 895.159 251.1 C 891.101 253.801 895.138 257.707 906.877 256.378 C 895.966 260.906 894.328 266.28 899.187 266.675 C 897.023 271.043 902.472 272.407 911.975 265.386 C 904.789 274.764 906.058 280.236 910.463 278.149 C 910.773 283.013 916.174 281.47 920.893 270.639 C 919.359 282.354 923.194 286.458 925.965 282.448 C 928.666 286.506 932.572 282.469 931.243 270.729 C 935.772 281.641 941.145 283.278 941.54 278.42 C 945.908 280.584 947.272 275.135 940.251 265.633 C 949.629 272.818 955.101 271.55 953.014 267.144 C 957.879 266.834 956.335 261.433 945.505 256.714 C 957.218 258.248 961.323 254.413 957.313 251.642 Z"/><circle style="fill:#A67C52;" cx="926.236" cy="251.371" r="16.106"/><g transform="matrix(0.416667, 0, 0, 0.416667, 563.526376, 0.655265)"><path style="fill:#FFB312;" d="M874.185,574.467c0,2.034-1.649,3.683-3.683,3.683c-2.034,0-3.683-1.649-3.683-3.683 c0-2.034,1.649-3.683,3.683-3.683C872.537,570.784,874.185,572.433,874.185,574.467z"/><path style="fill:#FFB312;" d="M874.185,589.88c0,2.034-1.649,3.683-3.683,3.683c-2.034,0-3.683-1.649-3.683-3.683 c0-2.034,1.649-3.683,3.683-3.683C872.537,586.197,874.185,587.846,874.185,589.88z"/><path style="fill:#FFB312;" d="M860.067,576.276c1.017,1.762,0.413,4.014-1.348,5.031c-1.761,1.017-4.014,0.413-5.031-1.348 c-1.017-1.762-0.414-4.014,1.348-5.031C856.798,573.911,859.05,574.515,860.067,576.276z"/><path style="fill:#FFB312;" d="M848.745,584.903c1.761,1.017,2.365,3.269,1.348,5.031c-1.017,1.762-3.269,2.365-5.031,1.348 c-1.761-1.017-2.365-3.269-1.348-5.031C844.731,584.489,846.983,583.885,848.745,584.903z"/><path style="fill:#FFB312;" d="M862.093,592.609c1.761,1.017,2.365,3.269,1.348,5.031c-1.017,1.762-3.269,2.365-5.031,1.348 c-1.761-1.017-2.365-3.269-1.348-5.031C858.079,592.196,860.331,591.592,862.093,592.609z"/><path style="fill:#FFB312;" d="M843.253,598.034c2.034,0,3.683,1.649,3.683,3.683s-1.649,3.683-3.683,3.683 c-2.034,0-3.683-1.649-3.683-3.683S841.219,598.034,843.253,598.034z"/><path style="fill:#FFB312;" d="M845.062,612.153c1.761-1.017,4.014-0.414,5.031,1.348c1.017,1.761,0.414,4.014-1.348,5.031 c-1.762,1.017-4.014,0.413-5.031-1.348C842.697,615.422,843.3,613.17,845.062,612.153z"/><path style="fill:#FFB312;" d="M858.41,604.446c1.761-1.017,4.014-0.414,5.031,1.348c1.017,1.761,0.414,4.014-1.348,5.031 c-1.762,1.017-4.014,0.413-5.031-1.348C856.045,607.715,856.649,605.463,858.41,604.446z"/><path style="fill:#FFB312;" d="M853.688,623.475c1.017-1.761,3.269-2.365,5.031-1.348c1.761,1.017,2.365,3.269,1.348,5.031 c-1.017,1.761-3.269,2.365-5.031,1.348C853.275,627.489,852.671,625.236,853.688,623.475z"/><path style="fill:#FFB312;" d="M866.82,628.967c0-2.034,1.649-3.683,3.683-3.683c2.034,0,3.683,1.649,3.683,3.683 s-1.649,3.683-3.683,3.683C868.469,632.65,866.82,631.001,866.82,628.967z"/><path style="fill:#FFB312;" d="M866.82,613.554c0-2.034,1.649-3.683,3.683-3.683s3.683,1.649,3.683,3.683 s-1.649,3.683-3.683,3.683S866.82,615.588,866.82,613.554z"/><path style="fill:#FFB312;" d="M880.938,627.158c-1.017-1.762-0.414-4.014,1.348-5.031c1.762-1.017,4.014-0.413,5.031,1.348 c1.017,1.762,0.413,4.014-1.348,5.031C884.208,629.523,881.955,628.919,880.938,627.158z"/><path style="fill:#FFB312;" d="M892.26,618.531c-1.761-1.017-2.365-3.269-1.348-5.031c1.017-1.762,3.269-2.365,5.031-1.348 c1.762,1.017,2.365,3.269,1.348,5.031C896.274,618.945,894.022,619.549,892.26,618.531z"/><path style="fill:#FFB312;" d="M878.912,610.825c-1.762-1.017-2.365-3.269-1.348-5.031c1.017-1.762,3.269-2.365,5.031-1.348 c1.762,1.017,2.365,3.269,1.348,5.031C882.926,611.238,880.674,611.842,878.912,610.825z"/><path style="fill:#FFB312;" d="M897.753,605.4c-2.034,0-3.683-1.649-3.683-3.683s1.649-3.683,3.683-3.683 s3.683,1.649,3.683,3.683S899.787,605.4,897.753,605.4z"/><path style="fill:#FFB312;" d="M895.943,591.281c-1.761,1.017-4.014,0.413-5.031-1.348c-1.017-1.761-0.413-4.014,1.348-5.031 c1.761-1.017,4.014-0.414,5.031,1.348C898.308,588.012,897.705,590.264,895.943,591.281z"/><path style="fill:#FFB312;" d="M882.595,598.988c-1.761,1.017-4.014,0.413-5.031-1.348c-1.017-1.761-0.414-4.014,1.348-5.031 c1.761-1.017,4.014-0.413,5.031,1.348C884.96,595.719,884.357,597.971,882.595,598.988z"/><path style="fill:#FFB312;" d="M887.317,579.959c-1.017,1.761-3.269,2.365-5.031,1.348c-1.761-1.017-2.365-3.269-1.348-5.031 c1.017-1.761,3.269-2.365,5.031-1.348C887.731,575.945,888.334,578.198,887.317,579.959z"/></g><g style="visibility: hidden;"><path style="fill: rgb(228, 123, 83);" d="M 482.405 250.711 C 512.809 230.477 482.564 201.213 394.601 211.176 C 476.364 177.244 488.622 136.985 452.226 134.026 C 468.438 101.299 427.613 91.079 356.418 143.679 C 410.247 73.419 400.751 32.42 367.743 48.057 C 365.418 11.611 324.951 23.174 289.607 104.322 C 301.09 16.553 272.363 -14.2 251.602 15.847 C 231.357 -14.556 202.094 15.691 212.057 103.647 C 178.125 21.894 137.865 9.625 134.904 46.025 C 102.184 29.814 91.963 70.641 144.56 141.831 C 74.301 87.997 33.303 97.501 48.94 130.507 C 12.494 132.83 24.057 173.3 105.204 208.653 C 17.439 197.16 -13.314 225.887 16.73 246.648 C -13.673 266.892 16.574 296.156 104.528 286.193 C 22.777 320.125 10.508 360.384 46.908 363.347 C 30.696 396.068 71.52 406.288 142.712 353.688 C 88.883 423.947 98.379 464.943 131.388 449.309 C 133.713 485.755 174.181 474.193 209.534 393.047 C 198.041 480.818 226.768 511.572 247.539 481.522 C 267.773 511.918 297.037 481.68 287.074 393.722 C 321.005 475.472 361.268 487.743 364.226 451.347 C 396.947 467.555 407.168 426.73 354.572 355.538 C 424.83 409.368 465.826 399.859 450.188 366.863 C 486.634 364.538 475.072 324.069 393.926 288.716 C 481.697 300.209 512.451 271.482 482.405 250.711 Z"/><g style="" transform="matrix(3.121783, 0, 0, 3.121783, -1901.589994, -1629.747827)"><path style="fill: rgb(115, 65, 55);" d="M693.833,551.593c-0.444,8.463-1.627,15.281-2.642,15.228c-1.016-0.053-1.479-6.957-1.036-15.421 c0.444-8.463,1.627-15.281,2.642-15.228C693.813,536.226,694.277,543.13,693.833,551.593z"/><path style="fill: rgb(115, 65, 55);" d="M688.309,551.4c0.443,8.463-0.02,15.367-1.036,15.421c-1.016,0.053-2.198-6.765-2.642-15.228 c-0.443-8.463,0.02-15.367,1.036-15.421C686.683,536.119,687.866,542.937,688.309,551.4z"/></g><g style="" transform="matrix(3.121783, 0, 0, 3.121783, -1901.589994, -1629.747827)"><path style="fill: rgb(115, 65, 55);" d="M668.135,555.932c3.848,7.551,6.232,14.047,5.326,14.509c-0.906,0.462-4.76-5.286-8.607-12.837 c-3.848-7.551-6.232-14.047-5.326-14.509C660.433,542.633,664.287,548.38,668.135,555.932z"/><path style="fill: rgb(115, 65, 55);" d="M663.254,558.527c4.616,7.108,7.666,13.319,6.813,13.872c-0.853,0.554-5.286-4.759-9.902-11.867 c-4.616-7.108-7.666-13.319-6.813-13.872S658.638,551.419,663.254,558.527z"/></g><g style="" transform="matrix(3.121783, 0, 0, 3.121783, -1901.589994, -1629.747827)"><path style="fill: rgb(115, 65, 55);" d="M648.048,572.538c7.108,4.616,12.421,9.049,11.867,9.902c-0.554,0.853-6.765-2.198-13.873-6.813 c-7.108-4.616-12.421-9.049-11.867-9.902S640.94,567.922,648.048,572.538z"/><path style="fill: rgb(115, 65, 55);" d="M645.119,577.226c7.551,3.848,13.298,7.701,12.837,8.607c-0.462,0.906-6.958-1.478-14.509-5.326 c-7.551-3.848-13.299-7.701-12.837-8.607C631.072,570.994,637.568,573.378,645.119,577.226z"/></g><g style="" transform="matrix(3.121783, 0, 0, 3.121783, -1901.589994, -1629.747827)"><path style="fill: rgb(115, 65, 55);" d="M638.956,596.963c8.463,0.444,15.281,1.626,15.228,2.642c-0.053,1.016-6.957,1.479-15.421,1.036 c-8.463-0.443-15.281-1.626-15.228-2.642C623.589,596.984,630.493,596.52,638.956,596.963z"/><path style="fill: rgb(115, 65, 55);" d="M638.763,602.488c8.463-0.443,15.367,0.02,15.421,1.036c0.053,1.016-6.764,2.198-15.228,2.642 c-8.463,0.444-15.367-0.02-15.421-1.036C623.482,604.114,630.3,602.931,638.763,602.488z"/></g><g style="" transform="matrix(3.121783, 0, 0, 3.121783, -1901.589994, -1629.747827)"><path style="fill: rgb(115, 65, 55);" d="M643.294,622.662c7.551-3.847,14.047-6.232,14.509-5.326c0.462,0.906-5.285,4.76-12.837,8.607 c-7.551,3.848-14.047,6.232-14.509,5.326C629.996,630.363,635.743,626.51,643.294,622.662z"/><path style="fill: rgb(115, 65, 55);" d="M645.89,627.543c7.108-4.616,13.319-7.666,13.873-6.813s-4.759,5.286-11.867,9.902 c-7.108,4.616-13.319,7.666-13.873,6.813S638.782,632.159,645.89,627.543z"/></g><g style="" transform="matrix(3.121783, 0, 0, 3.121783, -1901.589994, -1629.747827)"><path style="fill: rgb(115, 65, 55);" d="M659.901,642.749c4.616-7.108,9.049-12.421,9.902-11.867c0.853,0.554-2.197,6.765-6.813,13.872 c-4.616,7.108-9.049,12.421-9.902,11.867C652.235,656.068,655.285,649.857,659.901,642.749z"/><path style="fill: rgb(115, 65, 55);" d="M664.589,645.678c3.848-7.551,7.701-13.299,8.607-12.837c0.906,0.462-1.478,6.957-5.326,14.509 c-3.848,7.551-7.701,13.298-8.607,12.837C658.357,659.725,660.742,653.229,664.589,645.678z"/></g><g style="" transform="matrix(3.121783, 0, 0, 3.121783, -1901.589994, -1629.747827)"><path style="fill: rgb(115, 65, 55);" d="M684.326,651.841c0.443-8.463,1.626-15.281,2.642-15.228c1.016,0.053,1.479,6.957,1.036,15.421 c-0.444,8.463-1.626,15.281-2.642,15.228C684.347,667.208,683.883,660.304,684.326,651.841z"/><path style="fill: rgb(115, 65, 55);" d="M689.851,652.034c-0.444-8.463,0.02-15.367,1.036-15.421c1.016-0.053,2.198,6.765,2.642,15.228 c0.443,8.463-0.02,15.367-1.036,15.421C691.477,667.315,690.294,660.497,689.851,652.034z"/></g><g style="" transform="matrix(3.121783, 0, 0, 3.121783, -1901.589994, -1629.747827)"><path style="fill: rgb(115, 65, 55);" d="M710.025,647.502c-3.848-7.551-6.232-14.047-5.326-14.509c0.906-0.462,4.76,5.286,8.607,12.837 c3.847,7.551,6.232,14.047,5.326,14.509C717.726,660.801,713.873,655.054,710.025,647.502z"/><path style="fill: rgb(115, 65, 55);" d="M714.906,644.907c-4.616-7.108-7.666-13.319-6.813-13.872c0.853-0.554,5.286,4.759,9.902,11.867 c4.616,7.108,7.666,13.319,6.813,13.872C723.955,657.328,719.521,652.015,714.906,644.907z"/></g><g style="" transform="matrix(3.121783, 0, 0, 3.121783, -1901.589994, -1629.747827)"><path style="fill: rgb(115, 65, 55);" d="M730.112,630.896c-7.108-4.616-12.421-9.049-11.867-9.902c0.554-0.853,6.765,2.198,13.872,6.813 c7.108,4.616,12.421,9.049,11.867,9.902C743.43,638.562,737.219,635.511,730.112,630.896z"/><path style="fill: rgb(115, 65, 55);" d="M733.041,626.208c-7.551-3.848-13.298-7.701-12.837-8.607c0.462-0.906,6.957,1.478,14.509,5.326 c7.551,3.848,13.299,7.701,12.837,8.607C747.088,632.44,740.592,630.055,733.041,626.208z"/></g><g style="" transform="matrix(3.121783, 0, 0, 3.121783, -1901.589994, -1629.747827)"><path style="fill: rgb(115, 65, 55);" d="M739.204,606.471c-8.463-0.444-15.281-1.626-15.228-2.642c0.053-1.016,6.957-1.479,15.421-1.036 c8.463,0.443,15.281,1.626,15.228,2.642C754.571,606.45,747.667,606.914,739.204,606.471z"/><path style="fill: rgb(115, 65, 55);" d="M739.397,600.946c-8.463,0.444-15.367-0.02-15.421-1.036c-0.053-1.016,6.764-2.198,15.228-2.642 c8.463-0.444,15.367,0.02,15.421,1.036C754.678,599.32,747.86,600.503,739.397,600.946z"/></g><g style="" transform="matrix(3.121783, 0, 0, 3.121783, -1901.589994, -1629.747827)"><path style="fill: rgb(115, 65, 55);" d="M734.865,580.772c-7.551,3.847-14.047,6.232-14.509,5.326c-0.462-0.906,5.286-4.76,12.837-8.607 c7.551-3.847,14.047-6.232,14.509-5.326C748.164,573.07,742.417,576.924,734.865,580.772z"/><path style="fill: rgb(115, 65, 55);" d="M732.27,575.891c-7.108,4.616-13.319,7.666-13.873,6.813c-0.554-0.853,4.759-5.286,11.867-9.902 c7.108-4.616,13.319-7.666,13.872-6.813C744.691,566.842,739.378,571.275,732.27,575.891z"/></g><g style="" transform="matrix(3.121783, 0, 0, 3.121783, -1901.589994, -1629.747827)"><path style="fill: rgb(115, 65, 55);" d="M718.259,560.685c-4.616,7.108-9.049,12.421-9.902,11.867s2.198-6.765,6.813-13.872 c4.616-7.108,9.049-12.421,9.902-11.867C725.925,547.367,722.874,553.577,718.259,560.685z"/><path style="fill: rgb(115, 65, 55);" d="M713.571,557.756c-3.848,7.551-7.701,13.299-8.607,12.837c-0.906-0.462,1.478-6.957,5.326-14.509 c3.848-7.551,7.701-13.298,8.607-12.837C719.803,543.709,717.418,550.205,713.571,557.756z"/></g><ellipse transform="matrix(0.165307, -0.986242, 0.986242, 0.165307, -457.853819, 828.917097)" style="fill: rgb(240, 206, 86);" cx="689.08" cy="601.717" rx="120.668" ry="120.668"/></g><path style="fill:#A4D165;" d="M 785.751 224.188 C 784.393 217.21 778.187 215.861 775.05 222.391 C 771.914 215.861 765.707 217.21 764.349 224.188 C 762.796 232.17 772.414 244.548 775.05 244.548 C 777.687 244.548 787.304 232.17 785.751 224.188 Z"/><path style="fill:#A4D165;" d="M 756.86 228.512 C 750.137 226.199 745.866 230.9 749.953 236.881 C 742.73 236.332 740.794 242.381 746.159 247.047 C 752.294 252.383 767.823 250.243 769.141 247.959 C 770.459 245.676 764.549 231.158 756.86 228.512 Z"/><path style="fill:#A4D165;" d="M 746.159 255.695 C 740.794 260.36 742.73 266.41 749.953 265.861 C 745.866 271.842 750.137 276.543 756.86 274.23 C 764.549 271.584 770.459 257.066 769.141 254.783 C 767.823 252.499 752.294 250.359 746.159 255.695 Z"/><path style="fill:#A4D165;" d="M 764.349 278.553 C 765.707 285.532 771.914 286.881 775.05 280.351 C 778.187 286.881 784.393 285.533 785.751 278.553 C 787.304 270.572 777.687 258.194 775.05 258.194 C 772.414 258.194 762.796 270.572 764.349 278.553 Z"/><path style="fill:#A4D165;" d="M 793.241 274.23 C 799.964 276.543 804.234 271.842 800.148 265.861 C 807.371 266.41 809.307 260.36 803.942 255.695 C 797.806 250.359 782.278 252.499 780.959 254.783 C 779.642 257.066 785.552 271.584 793.241 274.23 Z"/><path style="fill:#A4D165;" d="M 803.942 247.047 C 809.307 242.381 807.371 236.332 800.148 236.881 C 804.234 230.9 799.964 226.199 793.241 228.512 C 785.552 231.158 779.641 245.675 780.959 247.959 C 782.278 250.243 797.806 252.383 803.942 247.047 Z"/><circle style="fill:#A4D165;" cx="775.05" cy="251.371" r="5.005"/><path style="fill:#AF7AC5;" d="M 712.937 224.795 C 711.226 217.816 703.408 216.468 699.457 222.997 C 695.506 216.468 687.689 217.816 685.978 224.795 C 684.021 232.776 696.136 245.154 699.457 245.154 C 702.779 245.154 714.894 232.776 712.937 224.795 Z"/><path style="fill:#AF7AC5;" d="M 677.771 230.758 C 670.605 230.228 666.906 237.247 671.896 243.022 C 664.465 244.761 663.331 252.613 669.44 256.397 C 676.426 260.724 691.941 253.027 692.968 249.868 C 693.994 246.71 685.966 231.363 677.771 230.758 Z"/><path style="fill:#AF7AC5;" d="M 672.575 266.045 C 669.857 272.697 675.389 278.383 682.424 275.423 C 681.782 283.027 688.899 286.532 694.385 281.891 C 700.659 276.584 698.134 259.45 695.447 257.498 C 692.76 255.545 675.684 258.438 672.575 266.045 Z"/><path style="fill:#AF7AC5;" d="M 704.53 281.892 C 710.016 286.532 717.133 283.028 716.492 275.423 C 723.526 278.383 729.058 272.698 726.34 266.046 C 723.232 258.439 706.155 255.546 703.468 257.498 C 700.781 259.45 698.256 276.585 704.53 281.892 Z"/><path style="fill:#AF7AC5;" d="M 729.475 256.397 C 735.584 252.613 734.45 244.761 727.019 243.022 C 732.009 237.247 728.311 230.228 721.144 230.758 C 712.949 231.364 704.921 246.71 705.947 249.869 C 706.973 253.028 722.489 260.725 729.475 256.397 Z"/><circle style="fill:#AF7AC5;" cx="699.457" cy="251.978" r="5.005"/><path style="fill:#71C7F5;" d="M 617.057 223.86 C 610.189 219.933 602.428 225.61 604.082 234.055 C 595.637 232.4 589.961 240.161 593.888 247.029 C 598.38 254.884 621.922 251.895 621.922 251.895 C 621.922 251.895 624.911 228.352 617.057 223.86 Z"/><path style="fill:#71C7F5;" d="M 593.888 260.645 C 589.961 267.513 595.637 275.274 604.082 273.619 C 602.428 282.065 610.189 287.741 617.057 283.813 C 624.911 279.322 621.922 255.779 621.922 255.779 C 621.922 255.779 598.379 252.79 593.888 260.645 Z"/><path style="fill:#71C7F5;" d="M 630.672 283.813 C 637.54 287.741 645.301 282.064 643.647 273.619 C 652.092 275.274 657.769 267.513 653.841 260.645 C 649.349 252.79 625.807 255.779 625.807 255.779 C 625.807 255.779 622.818 279.322 630.672 283.813 Z"/><path style="fill:#71C7F5;" d="M 653.841 247.029 C 657.769 240.161 652.092 232.4 643.647 234.055 C 645.302 225.61 637.54 219.933 630.672 223.86 C 622.818 228.352 625.807 251.895 625.807 251.895 C 625.807 251.895 649.35 254.884 653.841 247.029 Z"/><path style="fill:#AF7AC5;" d="M 1034.64 150.259 L 1028.93 149.337 L 1033.01 145.234 C 1029.99 141.07 1023.28 139.429 1016.62 141.595 C 1015.29 142.026 1014.04 142.544 1012.89 143.138 C 1013.1 141.859 1013.21 140.511 1013.21 139.117 C 1013.21 132.106 1009.57 126.23 1004.68 124.648 L 1002.03 129.796 L 999.394 124.648 C 994.5 126.231 990.866 132.107 990.866 139.117 C 990.866 140.511 990.973 141.859 991.182 143.138 C 990.03 142.544 988.782 142.026 987.456 141.595 C 980.788 139.428 974.077 141.07 971.059 145.234 L 975.139 149.337 L 969.426 150.259 C 969.42 155.402 973.885 160.674 980.553 162.84 C 981.878 163.271 983.193 163.586 984.474 163.782 C 983.553 164.694 982.674 165.721 981.855 166.849 C 977.734 172.521 977.221 179.411 980.249 183.568 L 985.413 180.955 L 984.523 186.673 C 989.413 188.269 995.807 185.652 999.928 179.98 C 1000.75 178.852 1001.45 177.699 1002.03 176.541 C 1002.62 177.699 1003.32 178.852 1004.14 179.98 C 1008.26 185.652 1014.66 188.269 1019.55 186.673 L 1018.66 180.955 L 1023.82 183.568 C 1026.85 179.411 1026.34 172.521 1022.22 166.849 C 1021.4 165.722 1020.52 164.694 1019.6 163.782 C 1020.88 163.586 1022.19 163.271 1023.52 162.84 C 1030.19 160.674 1034.65 155.402 1034.64 150.259 Z M 1020 154.878 C 1019.77 154.953 1019.53 154.992 1019.29 154.992 C 1018.62 154.992 1017.98 154.697 1017.54 154.196 L 1009.37 156.849 C 1009.39 156.937 1009.4 157.026 1009.41 157.116 L 1014.07 157.278 C 1014.34 156.733 1014.89 156.389 1015.51 156.389 L 1015.57 156.39 C 1016.47 156.422 1017.17 157.177 1017.14 158.073 C 1017.11 158.954 1016.39 159.644 1015.51 159.644 L 1015.46 159.642 C 1014.82 159.62 1014.26 159.229 1014.02 158.652 L 1009.46 158.492 C 1009.38 159.94 1008.89 161.276 1008.1 162.387 L 1011.96 164.991 C 1012.49 164.674 1013.19 164.687 1013.7 165.033 C 1014.06 165.276 1014.31 165.645 1014.39 166.071 C 1014.47 166.498 1014.39 166.932 1014.14 167.292 C 1013.84 167.741 1013.34 168.01 1012.79 168.01 C 1012.79 168.01 1012.79 168.01 1012.79 168.01 C 1012.47 168.01 1012.15 167.913 1011.88 167.731 C 1011.36 167.378 1011.09 166.75 1011.19 166.13 L 1007.2 163.436 C 1007.14 163.485 1007.09 163.531 1007.04 163.579 L 1012.19 170.663 C 1013.08 170.465 1014.04 170.824 1014.58 171.56 C 1015.34 172.601 1015.11 174.062 1014.07 174.818 C 1013.66 175.11 1013.19 175.264 1012.7 175.264 C 1011.95 175.264 1011.24 174.904 1010.81 174.302 C 1010.26 173.552 1010.22 172.544 1010.69 171.747 L 1005.53 164.647 C 1005.48 164.679 1005.41 164.705 1005.35 164.735 L 1006.69 169.401 C 1007.31 169.5 1007.83 169.947 1008 170.554 C 1008.25 171.416 1007.75 172.32 1006.88 172.567 C 1006.74 172.609 1006.59 172.63 1006.43 172.63 C 1005.71 172.63 1005.07 172.145 1004.87 171.451 C 1004.7 170.844 1004.9 170.191 1005.37 169.78 L 1004.07 165.234 C 1003.42 165.417 1002.74 165.522 1002.04 165.522 C 1001.33 165.522 1000.65 165.417 1000.01 165.235 L 998.703 169.78 C 999.176 170.192 999.375 170.844 999.201 171.451 C 999.003 172.145 998.36 172.63 997.638 172.63 C 997.486 172.63 997.335 172.609 997.189 172.567 C 996.326 172.32 995.826 171.417 996.073 170.554 C 996.247 169.947 996.763 169.5 997.382 169.401 L 998.72 164.735 C 998.659 164.705 998.596 164.679 998.537 164.647 L 993.378 171.747 C 993.85 172.544 993.81 173.552 993.265 174.302 C 992.828 174.904 992.122 175.264 991.376 175.264 C 990.882 175.264 990.408 175.11 990.007 174.818 C 988.967 174.062 988.735 172.601 989.491 171.56 C 990.027 170.824 990.992 170.463 991.886 170.663 L 997.033 163.579 C 996.98 163.531 996.927 163.485 996.875 163.436 L 992.88 166.13 C 992.978 166.75 992.712 167.378 992.188 167.731 C 991.918 167.913 991.604 168.01 991.279 168.01 C 990.737 168.01 990.232 167.742 989.929 167.292 C 989.686 166.932 989.598 166.498 989.68 166.072 C 989.764 165.645 990.008 165.276 990.368 165.033 C 990.881 164.687 991.582 164.674 992.112 164.991 L 995.972 162.387 C 995.181 161.277 994.691 159.94 994.61 158.492 L 990.051 158.652 C 989.806 159.229 989.247 159.62 988.616 159.642 L 988.558 159.644 C 987.678 159.644 986.964 158.954 986.933 158.073 C 986.902 157.177 987.605 156.421 988.502 156.39 L 988.56 156.389 C 989.176 156.389 989.727 156.733 990.004 157.278 L 994.658 157.116 C 994.67 157.026 994.684 156.937 994.699 156.849 L 986.535 154.196 C 985.933 154.879 984.941 155.161 984.07 154.878 C 982.847 154.48 982.175 153.162 982.573 151.939 C 982.887 150.975 983.778 150.327 984.791 150.327 C 985.035 150.327 985.278 150.366 985.512 150.442 C 986.395 150.728 987.018 151.521 987.105 152.442 L 995.222 155.08 C 995.261 154.991 995.305 154.906 995.348 154.819 L 991.723 151.987 C 991.171 152.269 990.478 152.207 989.987 151.823 C 989.28 151.271 989.154 150.246 989.706 149.539 C 990.017 149.142 990.485 148.913 990.99 148.913 C 991.355 148.913 991.702 149.032 991.99 149.258 C 992.488 149.647 992.71 150.292 992.569 150.903 L 996.068 153.637 C 996.922 152.491 998.095 151.602 999.459 151.097 L 997.962 146.985 C 997.332 146.926 996.79 146.515 996.576 145.927 C 996.269 145.083 996.706 144.148 997.549 143.841 C 997.729 143.775 997.916 143.742 998.106 143.742 C 998.787 143.742 999.402 144.172 999.635 144.813 C 999.851 145.407 999.698 146.072 999.254 146.515 L 1000.79 150.742 C 1000.9 150.724 1001.01 150.707 1001.11 150.693 L 1001.11 142.264 C 1000.26 141.897 999.704 141.058 999.704 140.13 C 999.704 138.844 1000.75 137.798 1002.04 137.798 C 1003.32 137.798 1004.37 138.844 1004.37 140.13 C 1004.37 141.058 1003.81 141.897 1002.96 142.264 L 1002.96 150.693 C 1003.07 150.706 1003.17 150.724 1003.28 150.742 L 1004.82 146.515 C 1004.38 146.072 1004.22 145.407 1004.44 144.813 C 1004.67 144.172 1005.28 143.742 1005.97 143.742 C 1006.16 143.742 1006.34 143.775 1006.52 143.841 C 1007.37 144.147 1007.8 145.083 1007.5 145.927 C 1007.28 146.519 1006.74 146.93 1006.11 146.985 L 1004.61 151.097 C 1005.98 151.602 1007.15 152.491 1008 153.637 L 1011.5 150.903 C 1011.36 150.292 1011.59 149.647 1012.08 149.258 C 1012.37 149.032 1012.72 148.913 1013.08 148.913 C 1013.59 148.913 1014.06 149.141 1014.37 149.539 C 1014.63 149.881 1014.75 150.307 1014.7 150.739 C 1014.65 151.17 1014.43 151.555 1014.09 151.823 C 1013.8 152.047 1013.46 152.165 1013.09 152.165 C 1012.83 152.165 1012.58 152.104 1012.35 151.987 L 1008.73 154.819 C 1008.77 154.905 1008.81 154.991 1008.85 155.079 L 1016.97 152.442 C 1017.05 151.52 1017.68 150.728 1018.56 150.441 C 1018.8 150.365 1019.04 150.327 1019.28 150.327 C 1020.3 150.327 1021.19 150.975 1021.5 151.939 C 1021.9 153.162 1021.22 154.48 1020 154.878 Z"/><path style="fill:#EF3D5A;" d="M 957.718 147.035 C 955.455 140.068 947.972 136.255 941.005 138.519 C 940.227 138.772 939.495 139.099 938.799 139.475 C 938.941 138.697 939.025 137.899 939.025 137.08 C 939.025 129.755 933.087 123.817 925.762 123.817 C 918.437 123.817 912.499 129.755 912.499 137.08 C 912.499 137.899 912.584 138.697 912.725 139.475 C 912.03 139.099 911.297 138.772 910.519 138.519 C 903.552 136.255 896.07 140.068 893.806 147.035 C 891.542 154.001 895.355 161.484 902.321 163.747 C 903.1 164 903.885 164.166 904.668 164.272 C 904.096 164.817 903.559 165.413 903.077 166.075 C 898.772 172.001 900.085 180.296 906.012 184.601 C 911.938 188.907 920.233 187.593 924.538 181.667 C 925.019 181.005 925.419 180.31 925.762 179.597 C 926.104 180.31 926.504 181.005 926.985 181.667 C 931.291 187.593 939.585 188.907 945.511 184.601 C 951.438 180.296 952.751 172.001 948.445 166.075 C 947.964 165.413 947.427 164.817 946.855 164.272 C 947.638 164.166 948.423 164 949.202 163.747 C 956.169 161.483 959.982 154.001 957.718 147.035 Z M 947.799 152 C 947.481 152.624 946.939 153.086 946.274 153.302 C 946.013 153.387 945.743 153.43 945.471 153.43 C 944.717 153.43 943.989 153.093 943.492 152.522 L 934.385 155.481 C 934.417 155.623 934.442 155.767 934.467 155.911 L 939.559 156.089 C 939.865 155.47 940.487 155.078 941.181 155.078 L 941.246 155.079 C 941.732 155.096 942.182 155.301 942.513 155.657 C 942.845 156.012 943.018 156.475 943.001 156.961 C 942.966 157.945 942.168 158.717 941.184 158.717 L 941.119 158.715 C 940.407 158.69 939.778 158.245 939.507 157.59 L 934.605 157.419 C 934.605 159.225 934.06 160.903 933.13 162.303 L 937.105 164.984 C 937.699 164.62 938.491 164.63 939.07 165.021 C 939.902 165.582 940.122 166.715 939.561 167.547 C 939.223 168.05 938.658 168.349 938.051 168.349 C 937.688 168.349 937.337 168.242 937.035 168.038 C 936.445 167.64 936.147 166.928 936.264 166.23 L 932.187 163.48 C 932.072 163.601 931.955 163.72 931.833 163.835 L 937.349 171.427 C 938.356 171.193 939.453 171.597 940.058 172.43 C 940.47 172.997 940.636 173.689 940.527 174.38 C 940.417 175.072 940.045 175.679 939.479 176.09 C 939.028 176.418 938.496 176.591 937.94 176.591 C 937.103 176.591 936.31 176.187 935.819 175.511 C 935.202 174.662 935.161 173.521 935.701 172.624 L 930.202 165.055 C 930.054 165.141 929.904 165.223 929.75 165.301 L 931.094 169.986 C 931.794 170.09 932.379 170.593 932.575 171.277 C 932.709 171.745 932.653 172.236 932.418 172.661 C 932.183 173.086 931.795 173.394 931.328 173.527 C 931.164 173.575 930.995 173.598 930.825 173.598 C 930.019 173.598 929.3 173.056 929.078 172.28 C 928.881 171.595 929.11 170.859 929.649 170.399 L 928.351 165.871 C 927.532 166.122 926.663 166.258 925.762 166.258 C 924.861 166.258 923.993 166.122 923.173 165.871 L 921.875 170.399 C 922.414 170.859 922.643 171.595 922.447 172.28 C 922.224 173.056 921.505 173.598 920.699 173.598 C 920.529 173.598 920.36 173.575 920.196 173.527 C 919.232 173.251 918.673 172.242 918.949 171.277 C 919.145 170.592 919.73 170.089 920.43 169.985 L 921.773 165.3 C 921.62 165.222 921.47 165.141 921.321 165.054 L 915.822 172.623 C 916.362 173.52 916.321 174.662 915.705 175.51 C 915.214 176.186 914.42 176.59 913.583 176.59 C 913.028 176.59 912.495 176.417 912.045 176.09 C 911.479 175.678 911.107 175.071 910.997 174.38 C 910.887 173.688 911.054 172.995 911.465 172.43 C 912.071 171.596 913.168 171.193 914.175 171.426 L 919.691 163.834 C 919.569 163.719 919.451 163.6 919.337 163.479 L 915.26 166.229 C 915.377 166.927 915.08 167.639 914.489 168.037 C 914.187 168.241 913.836 168.348 913.473 168.348 C 912.867 168.348 912.302 168.049 911.963 167.546 C 911.691 167.143 911.592 166.659 911.685 166.182 C 911.778 165.705 912.051 165.292 912.455 165.02 C 913.034 164.63 913.825 164.62 914.42 164.983 L 918.395 162.302 C 917.465 160.902 916.92 159.225 916.92 157.418 L 912.017 157.59 C 911.747 158.244 911.117 158.69 910.405 158.715 L 910.341 158.716 C 909.356 158.716 908.558 157.945 908.523 156.96 C 908.489 155.957 909.276 155.113 910.279 155.078 L 910.343 155.077 C 911.038 155.077 911.66 155.469 911.965 156.088 L 917.058 155.91 C 917.083 155.766 917.108 155.622 917.139 155.48 L 908.032 152.521 C 907.356 153.298 906.235 153.621 905.25 153.302 C 903.876 152.855 903.121 151.374 903.568 150 C 903.92 148.916 904.921 148.188 906.06 148.188 C 906.334 148.188 906.607 148.232 906.87 148.317 C 907.867 148.641 908.571 149.54 908.661 150.584 L 917.815 153.558 C 917.876 153.432 917.932 153.304 917.999 153.181 L 913.94 150.01 C 913.32 150.333 912.536 150.268 911.982 149.835 C 911.192 149.217 911.05 148.072 911.668 147.281 C 912.015 146.837 912.538 146.582 913.103 146.582 C 913.512 146.582 913.899 146.715 914.222 146.967 C 914.783 147.406 915.031 148.137 914.865 148.825 L 918.837 151.928 C 919.878 150.616 921.283 149.61 922.902 149.056 L 921.154 144.255 C 920.442 144.196 919.828 143.735 919.587 143.07 C 919.42 142.614 919.442 142.12 919.648 141.679 C 919.853 141.239 920.217 140.905 920.674 140.738 C 920.875 140.665 921.084 140.628 921.296 140.628 C 922.058 140.628 922.745 141.11 923.006 141.826 C 923.25 142.495 923.073 143.246 922.567 143.742 L 924.37 148.694 C 924.494 148.674 924.618 148.651 924.744 148.637 L 924.744 138.899 C 923.78 138.491 923.142 137.543 923.142 136.494 C 923.142 135.049 924.318 133.874 925.762 133.874 C 927.207 133.874 928.383 135.049 928.383 136.494 C 928.383 137.543 927.745 138.49 926.78 138.899 L 926.78 148.637 C 926.907 148.651 927.03 148.674 927.155 148.694 L 928.958 143.742 C 928.452 143.246 928.275 142.495 928.518 141.826 C 928.779 141.11 929.466 140.628 930.228 140.628 C 930.44 140.628 930.65 140.665 930.85 140.738 C 931.793 141.081 932.281 142.127 931.938 143.07 C 931.695 143.738 931.075 144.2 930.37 144.255 L 928.623 149.055 C 930.241 149.609 931.646 150.615 932.688 151.928 L 936.66 148.825 C 936.494 148.136 936.741 147.406 937.303 146.967 C 937.626 146.715 938.013 146.582 938.421 146.582 C 938.986 146.582 939.509 146.836 939.856 147.281 C 940.474 148.071 940.333 149.217 939.543 149.835 C 939.223 150.085 938.839 150.217 938.433 150.217 C 938.136 150.217 937.846 150.145 937.584 150.009 L 933.525 153.18 C 933.592 153.303 933.648 153.431 933.709 153.557 L 942.863 150.583 C 942.953 149.54 943.657 148.64 944.655 148.316 C 944.918 148.231 945.19 148.187 945.465 148.187 C 946.603 148.187 947.605 148.915 947.957 149.999 C 948.173 150.666 948.117 151.377 947.799 152 Z"/><path style="fill:#71C7F5;" d="M 882.098 150.259 L 876.385 149.337 L 880.465 145.234 C 877.447 141.07 870.736 139.429 864.068 141.595 C 862.742 142.026 861.494 142.544 860.342 143.138 C 860.552 141.859 860.658 140.511 860.658 139.117 C 860.658 132.106 857.024 126.23 852.13 124.648 L 849.489 129.796 L 846.847 124.648 C 841.954 126.231 838.319 132.107 838.319 139.117 C 838.319 140.511 838.426 141.859 838.635 143.138 C 837.483 142.544 836.235 142.026 834.909 141.595 C 828.241 139.428 821.53 141.07 818.512 145.234 L 822.592 149.337 L 816.88 150.259 C 816.873 155.402 821.338 160.674 828.006 162.84 C 829.332 163.271 830.646 163.586 831.927 163.782 C 831.006 164.694 830.127 165.721 829.308 166.849 C 825.187 172.521 824.674 179.411 827.702 183.568 L 832.866 180.955 L 831.977 186.673 C 836.866 188.269 843.26 185.652 847.381 179.98 C 848.2 178.852 848.906 177.699 849.488 176.541 C 850.071 177.699 850.777 178.852 851.596 179.98 C 855.717 185.652 862.111 188.269 867 186.673 L 866.111 180.955 L 871.274 183.568 C 874.302 179.411 873.789 172.521 869.668 166.849 C 868.849 165.722 867.971 164.694 867.049 163.782 C 868.331 163.586 869.645 163.271 870.971 162.84 C 877.64 160.674 882.105 155.402 882.098 150.259 Z M 863.639 156.45 C 862.405 156.851 861.098 156.356 860.414 155.326 L 855.884 156.798 C 855.966 157.212 856.011 157.639 856.011 158.076 C 856.011 159.846 855.303 161.449 854.158 162.624 L 857.058 166.615 C 858.13 166.368 859.294 166.762 859.981 167.708 C 860.898 168.971 860.618 170.738 859.356 171.656 C 858.093 172.573 856.326 172.293 855.408 171.03 C 854.663 170.005 854.708 168.646 855.428 167.68 L 852.61 163.803 C 851.683 164.309 850.62 164.597 849.489 164.597 C 848.358 164.597 847.295 164.309 846.368 163.803 L 843.551 167.681 C 844.271 168.647 844.315 170.005 843.57 171.031 C 842.653 172.294 840.886 172.573 839.623 171.656 C 838.36 170.739 838.08 168.971 838.998 167.709 C 839.685 166.763 840.849 166.369 841.92 166.616 L 844.82 162.625 C 843.676 161.45 842.968 159.847 842.968 158.077 C 842.968 157.639 843.012 157.212 843.095 156.798 L 838.565 155.326 C 837.881 156.356 836.574 156.851 835.34 156.45 C 833.855 155.968 833.043 154.374 833.525 152.889 C 834.008 151.405 835.602 150.592 837.087 151.075 C 838.168 151.426 838.89 152.368 839.017 153.427 L 843.756 154.966 C 844.712 153.206 846.459 151.943 848.517 151.635 L 848.517 146.767 C 847.436 146.37 846.664 145.335 846.664 144.117 C 846.664 142.556 847.929 141.29 849.49 141.29 C 851.051 141.29 852.316 142.556 852.316 144.117 C 852.316 145.335 851.544 146.37 850.463 146.767 L 850.463 151.635 C 852.521 151.943 854.267 153.206 855.224 154.966 L 859.962 153.427 C 860.09 152.367 860.812 151.426 861.893 151.075 C 863.377 150.592 864.972 151.405 865.454 152.889 C 865.936 154.374 865.123 155.968 863.639 156.45 Z"/><path style="fill:#FF8343;" d="M 805.172 147.035 C 802.908 140.068 795.426 136.255 788.459 138.519 C 787.68 138.772 786.948 139.099 786.252 139.475 C 786.394 138.697 786.479 137.899 786.479 137.08 C 786.479 129.755 780.541 123.817 773.216 123.817 C 765.891 123.817 759.952 129.755 759.952 137.08 C 759.952 137.899 760.037 138.697 760.179 139.475 C 759.484 139.099 758.751 138.772 757.973 138.519 C 751.006 136.255 743.524 140.068 741.26 147.035 C 738.996 154.001 742.809 161.484 749.775 163.747 C 750.554 164 751.339 164.166 752.122 164.272 C 751.551 164.817 751.013 165.413 750.532 166.075 C 746.226 172.001 747.539 180.296 753.466 184.601 C 759.392 188.907 767.687 187.593 771.992 181.667 C 772.473 181.005 772.873 180.31 773.215 179.597 C 773.557 180.31 773.958 181.005 774.439 181.667 C 778.745 187.593 787.039 188.907 792.965 184.601 C 798.892 180.296 800.205 172.001 795.899 166.075 C 795.418 165.413 794.881 164.817 794.309 164.272 C 795.092 164.166 795.877 164 796.656 163.747 C 803.623 161.483 807.436 154.001 805.172 147.035 Z M 789.141 155.146 C 787.752 155.597 786.281 155.04 785.511 153.881 L 780.413 155.537 C 780.505 156.003 780.556 156.484 780.556 156.976 C 780.556 158.968 779.759 160.772 778.471 162.095 L 781.734 166.587 C 782.94 166.309 784.25 166.753 785.023 167.817 C 786.056 169.238 785.741 171.227 784.319 172.26 C 782.898 173.292 780.909 172.977 779.877 171.556 C 779.038 170.402 779.089 168.873 779.899 167.786 L 776.728 163.422 C 775.685 163.992 774.488 164.317 773.216 164.317 C 771.943 164.317 770.747 163.992 769.703 163.422 L 766.533 167.786 C 767.343 168.873 767.393 170.402 766.555 171.556 C 765.522 172.977 763.533 173.292 762.112 172.26 C 760.692 171.227 760.376 169.238 761.409 167.817 C 762.182 166.753 763.492 166.309 764.698 166.587 L 767.962 162.095 C 766.673 160.772 765.877 158.968 765.877 156.976 C 765.877 156.484 765.927 156.003 766.019 155.537 L 760.921 153.88 C 760.151 155.04 758.68 155.597 757.292 155.146 C 755.621 154.603 754.707 152.809 755.249 151.138 C 755.792 149.468 757.587 148.553 759.257 149.096 C 760.474 149.492 761.287 150.552 761.43 151.743 L 766.763 153.476 C 767.839 151.495 769.805 150.074 772.121 149.727 L 772.121 144.248 C 770.905 143.802 770.035 142.637 770.035 141.265 C 770.035 139.508 771.459 138.085 773.216 138.085 C 774.972 138.085 776.397 139.509 776.397 141.265 C 776.397 142.636 775.527 143.801 774.311 144.248 L 774.311 149.726 C 776.627 150.074 778.592 151.495 779.669 153.476 L 785.002 151.743 C 785.146 150.551 785.958 149.491 787.174 149.096 C 788.845 148.553 790.639 149.467 791.182 151.138 C 791.726 152.809 790.812 154.603 789.141 155.146 Z"/><path style="fill:#F0588D;" d="M 728.899 147.035 C 726.635 140.068 719.153 136.255 712.186 138.519 C 711.407 138.772 710.675 139.099 709.979 139.475 C 710.121 138.697 710.206 137.899 710.206 137.08 C 710.206 129.755 704.268 123.817 696.943 123.817 C 689.618 123.817 683.68 129.755 683.68 137.08 C 683.68 137.899 683.765 138.697 683.906 139.475 C 683.211 139.099 682.478 138.772 681.7 138.519 C 674.733 136.255 667.251 140.068 664.987 147.035 C 662.723 154.001 666.536 161.484 673.502 163.747 C 674.281 164 675.066 164.166 675.849 164.272 C 675.277 164.817 674.74 165.413 674.259 166.075 C 669.953 172.001 671.266 180.296 677.193 184.601 C 683.119 188.907 691.414 187.593 695.719 181.667 C 696.2 181.005 696.6 180.31 696.943 179.597 C 697.285 180.31 697.685 181.005 698.166 181.667 C 702.471 187.593 710.766 188.907 716.692 184.601 C 722.619 180.296 723.932 172.001 719.627 166.075 C 719.145 165.413 718.608 164.817 718.036 164.272 C 718.819 164.166 719.604 164 720.383 163.747 C 727.35 161.483 731.163 154.001 728.899 147.035 Z M 696.943 167.622 C 690.94 167.622 686.074 162.755 686.074 156.752 C 686.074 150.749 690.94 145.882 696.943 145.882 C 702.946 145.882 707.813 150.749 707.813 156.752 C 707.813 162.755 702.946 167.622 696.943 167.622 Z"/><path style="fill:#48D2B0;" d="M 641.564 158.874 C 642.063 158.458 642.551 158.017 643.022 157.546 C 649.989 150.579 650.93 140.225 645.125 134.42 C 639.319 128.614 628.965 129.555 621.998 136.522 C 621.527 136.993 621.086 137.481 620.67 137.981 C 620.254 137.481 619.813 136.993 619.341 136.522 C 612.375 129.555 602.021 128.614 596.215 134.42 C 590.409 140.225 591.351 150.579 598.318 157.546 C 598.789 158.017 599.276 158.458 599.776 158.874 C 599.277 159.29 598.789 159.731 598.318 160.202 C 591.351 167.169 590.41 177.523 596.215 183.329 C 602.021 189.135 612.375 188.193 619.341 181.226 C 619.813 180.755 620.254 180.267 620.67 179.767 C 621.086 180.267 621.527 180.755 621.998 181.226 C 628.965 188.193 639.319 189.134 645.125 183.329 C 650.931 177.523 649.989 167.169 643.022 160.202 C 642.551 159.731 642.063 159.29 641.564 158.874 Z M 620.67 169.744 C 614.667 169.744 609.8 164.877 609.8 158.874 C 609.8 152.871 614.666 148.005 620.67 148.005 C 626.673 148.005 631.539 152.871 631.539 158.874 C 631.539 164.877 626.673 169.744 620.67 169.744 Z"/><path style="fill:#71C7F5;" d="M 1015.36 71.518 C 1015.3 71.846 1015.23 72.171 1015.14 72.489 C 1046.39 80.56 1046.39 58.354 1015.14 66.426 C 1015.23 66.745 1015.3 67.069 1015.36 67.397 C 1020.23 67.836 1020.23 71.08 1015.36 71.518 Z"/><path style="fill:#71C7F5;" d="M 992.246 67.398 C 992.305 67.069 992.375 66.745 992.46 66.427 C 961.212 58.355 961.212 80.561 992.46 72.489 C 992.375 72.171 992.305 71.847 992.246 71.518 C 987.376 71.08 987.376 67.836 992.246 67.398 Z"/><path style="fill:#71C7F5;" d="M 992.76 73.447 C 992.649 73.138 992.55 72.823 992.465 72.502 C 961.365 81.137 972.47 100.37 995.499 77.749 C 995.267 77.517 995.045 77.273 994.833 77.022 C 990.383 79.091 988.749 76.265 992.76 73.447 Z"/><path style="fill:#71C7F5;" d="M 994.833 61.894 C 995.045 61.643 995.267 61.399 995.499 61.166 C 972.47 38.546 961.364 57.779 992.464 66.413 C 992.55 66.093 992.648 65.778 992.76 65.469 C 988.749 62.65 990.383 59.824 994.833 61.894 Z"/><path style="fill:#71C7F5;" d="M 1011.37 60.49 C 1011.62 60.703 1011.86 60.924 1012.09 61.156 C 1034.71 38.127 1015.48 27.022 1006.85 58.122 C 1007.16 58.207 1007.48 58.306 1007.79 58.417 C 1010.61 54.406 1013.43 56.04 1011.37 60.49 Z"/><path style="fill:#71C7F5;" d="M 1014.84 65.469 C 1014.95 65.778 1015.05 66.093 1015.14 66.413 C 1046.24 57.778 1035.13 38.546 1012.1 61.166 C 1012.34 61.399 1012.56 61.642 1012.77 61.894 C 1017.22 59.824 1018.85 62.65 1014.84 65.469 Z"/><path style="fill:#71C7F5;" d="M 1005.86 57.903 C 1006.19 57.962 1006.51 58.032 1006.83 58.117 C 1014.9 26.869 992.698 26.868 1000.77 58.117 C 1001.09 58.032 1001.41 57.962 1001.74 57.903 C 1002.18 53.033 1005.42 53.033 1005.86 57.903 Z"/><path style="fill:#71C7F5;" d="M 996.237 78.425 C 995.985 78.213 995.742 77.992 995.509 77.759 C 972.889 100.789 992.121 111.894 1000.76 80.794 C 1000.44 80.708 1000.12 80.61 999.813 80.498 C 996.993 84.51 994.168 82.875 996.237 78.425 Z"/><path style="fill:#71C7F5;" d="M 999.812 58.417 C 1000.12 58.306 1000.44 58.207 1000.76 58.122 C 992.121 27.022 972.889 38.127 995.508 61.156 C 995.741 60.924 995.985 60.702 996.237 60.49 C 994.168 56.04 996.993 54.406 999.812 58.417 Z"/><path style="fill:#71C7F5;" d="M 1001.74 81.012 C 1001.41 80.954 1001.09 80.883 1000.77 80.798 C 992.698 112.047 1014.9 112.047 1006.83 80.798 C 1006.51 80.884 1006.19 80.954 1005.86 81.012 C 1005.42 85.883 1002.18 85.883 1001.74 81.012 Z"/><path style="fill:#71C7F5;" d="M 1007.79 80.498 C 1007.48 80.61 1007.16 80.708 1006.85 80.794 C 1015.48 111.894 1034.71 100.788 1012.09 77.759 C 1011.86 77.992 1011.62 78.213 1011.37 78.425 C 1013.43 82.875 1010.61 84.51 1007.79 80.498 Z"/><path style="fill:#71C7F5;" d="M 1012.77 77.022 C 1012.56 77.273 1012.34 77.517 1012.1 77.749 C 1035.13 100.37 1046.24 81.137 1015.14 72.502 C 1015.05 72.822 1014.95 73.138 1014.84 73.446 C 1018.85 76.265 1017.22 79.091 1012.77 77.022 Z"/><circle style="fill:#71C7F5;" cx="1003.8" cy="69.458" r="9.565"/><path style="fill:#FF8343;" d="M 929.764 57.991 C 930.141 58.073 930.513 58.174 930.875 58.292 C 940.427 27.712 914.086 27.712 923.638 58.292 C 924.001 58.174 924.372 58.073 924.749 57.991 C 925.246 53.004 929.268 53.004 929.764 57.991 Z"/><path style="fill:#FF8343;" d="M 924.75 80.924 C 924.372 80.842 924.001 80.742 923.638 80.623 C 914.087 111.203 940.427 111.203 930.876 80.623 C 930.513 80.741 930.142 80.842 929.764 80.924 C 929.268 85.912 925.246 85.912 924.75 80.924 Z"/><path style="fill:#FF8343;" d="M 915.575 70.609 C 915.538 70.233 915.518 69.852 915.518 69.467 C 883.483 69.833 891.625 94.886 917.76 76.347 C 917.536 76.039 917.327 75.721 917.134 75.392 C 912.222 76.472 910.969 72.623 915.575 70.609 Z"/><path style="fill:#FF8343;" d="M 918.487 77.249 C 918.234 76.965 917.995 76.669 917.77 76.361 C 892.062 95.487 913.374 110.973 923.621 80.618 C 923.257 80.499 922.901 80.363 922.553 80.21 C 919.214 83.971 915.938 81.589 918.487 77.249 Z"/><path style="fill:#FF8343;" d="M 938.939 68.306 C 938.975 68.682 938.995 69.063 938.996 69.449 C 971.03 69.082 962.888 44.029 936.753 62.569 C 936.977 62.876 937.186 63.195 937.38 63.524 C 942.291 62.443 943.544 66.292 938.939 68.306 Z"/><path style="fill:#FF8343;" d="M 917.134 63.524 C 917.328 63.195 917.536 62.876 917.76 62.569 C 891.625 44.029 883.483 69.082 915.518 69.449 C 915.518 69.063 915.538 68.682 915.575 68.306 C 910.969 66.292 912.222 62.443 917.134 63.524 Z"/><path style="fill:#FF8343;" d="M 922.553 58.705 C 922.901 58.552 923.258 58.417 923.622 58.297 C 913.374 27.942 892.062 43.428 917.77 62.554 C 917.995 62.247 918.234 61.95 918.487 61.666 C 915.938 57.327 919.214 54.944 922.553 58.705 Z"/><path style="fill:#FF8343;" d="M 938.995 69.467 C 938.995 69.852 938.975 70.233 938.938 70.609 C 943.544 72.623 942.291 76.472 937.379 75.392 C 937.185 75.721 936.977 76.039 936.753 76.347 C 962.888 94.886 971.03 69.833 938.995 69.467 Z"/><path style="fill:#FF8343;" d="M 931.96 80.21 C 931.613 80.363 931.256 80.499 930.892 80.618 C 941.139 110.974 962.451 95.488 936.743 76.361 C 936.518 76.669 936.279 76.966 936.027 77.25 C 938.575 81.589 935.3 83.971 931.96 80.21 Z"/><path style="fill:#FF8343;" d="M 936.027 61.666 C 936.28 61.95 936.518 62.247 936.743 62.555 C 962.451 43.428 941.139 27.942 930.892 58.298 C 931.256 58.417 931.612 58.553 931.96 58.706 C 935.3 54.944 938.575 57.327 936.027 61.666 Z"/><circle style="fill:#FF8343;" cx="927.257" cy="69.458" r="9.565"/><path style="fill:#AF7AC5;" d="M 860.831 63.517 C 861.09 63.955 861.322 64.411 861.523 64.883 C 892.005 50.296 869.875 28.166 855.288 58.647 C 855.76 58.848 856.215 59.081 856.654 59.339 C 860.702 56.11 864.06 59.468 860.831 63.517 Z"/><path style="fill:#AF7AC5;" d="M 844.772 59.339 C 845.21 59.081 845.665 58.848 846.137 58.647 C 831.55 28.165 809.42 50.295 839.902 64.882 C 840.103 64.41 840.335 63.955 840.594 63.517 C 837.365 59.468 840.723 56.11 844.772 59.339 Z"/><path style="fill:#AF7AC5;" d="M 853.666 58.095 C 854.165 58.225 854.65 58.389 855.121 58.581 C 866.362 26.709 835.062 26.709 846.304 58.581 C 846.775 58.389 847.26 58.225 847.759 58.095 C 848.342 52.958 853.083 52.958 853.666 58.095 Z"/><path style="fill:#AF7AC5;" d="M 862.075 72.411 C 861.945 72.91 861.781 73.395 861.59 73.866 C 893.461 85.108 893.461 53.808 861.59 65.049 C 861.781 65.52 861.945 66.005 862.075 66.504 C 867.212 67.087 867.212 71.829 862.075 72.411 Z"/><path style="fill:#AF7AC5;" d="M 856.653 79.577 C 856.215 79.835 855.76 80.068 855.287 80.269 C 869.875 110.75 892.005 88.62 861.523 74.033 C 861.322 74.506 861.09 74.961 860.831 75.399 C 864.06 79.447 860.702 82.805 856.653 79.577 Z"/><path style="fill:#AF7AC5;" d="M 847.759 80.82 C 847.26 80.691 846.775 80.527 846.304 80.335 C 835.062 112.207 866.362 112.207 855.121 80.335 C 854.65 80.527 854.165 80.69 853.666 80.82 C 853.083 85.957 848.342 85.957 847.759 80.82 Z"/><path style="fill:#AF7AC5;" d="M 840.594 75.399 C 840.335 74.96 840.102 74.505 839.902 74.033 C 809.42 88.62 831.55 110.75 846.137 80.268 C 845.665 80.067 845.21 79.835 844.771 79.576 C 840.723 82.805 837.365 79.447 840.594 75.399 Z"/><path style="fill:#AF7AC5;" d="M 839.35 66.504 C 839.48 66.006 839.644 65.521 839.836 65.049 C 807.964 53.808 807.964 85.108 839.836 73.866 C 839.644 73.395 839.48 72.91 839.35 72.411 C 834.213 71.829 834.213 67.087 839.35 66.504 Z"/><circle style="fill:#AF7AC5;" cx="850.712" cy="69.458" r="9.565"/><path style="fill:#FFB312;" d="M 766.079 60.962 C 766.552 60.512 767.06 60.098 767.602 59.731 C 744.201 30.57 725.507 62.949 762.461 68.635 C 762.507 67.972 762.608 67.324 762.76 66.696 C 758.522 63.488 761.18 58.889 766.079 60.962 Z"/><path style="fill:#FFB312;" d="M 785.576 66.696 C 785.728 67.324 785.829 67.972 785.875 68.635 C 822.83 62.949 804.135 30.569 780.734 59.731 C 781.277 60.099 781.784 60.512 782.257 60.962 C 787.156 58.889 789.814 63.488 785.576 66.696 Z"/><path style="fill:#FFB312;" d="M 777.48 58.197 C 778.114 58.384 778.725 58.621 779.309 58.907 C 792.862 24.062 755.474 24.062 769.027 58.907 C 769.611 58.621 770.223 58.384 770.856 58.197 C 771.515 52.926 776.822 52.926 777.48 58.197 Z"/><path style="fill:#FFB312;" d="M 785.875 70.281 C 785.829 70.944 785.728 71.592 785.576 72.22 C 789.814 75.427 787.156 80.026 782.257 77.953 C 781.784 78.404 781.276 78.817 780.734 79.184 C 804.135 108.346 822.83 75.966 785.875 70.281 Z"/><path style="fill:#FFB312;" d="M 762.76 72.22 C 762.608 71.592 762.507 70.944 762.461 70.281 C 725.507 75.966 744.202 108.346 767.602 79.184 C 767.06 78.817 766.552 78.404 766.079 77.953 C 761.18 80.026 758.522 75.427 762.76 72.22 Z"/><path style="fill:#FFB312;" d="M 770.857 80.718 C 770.223 80.532 769.612 80.294 769.027 80.009 C 755.475 114.854 792.862 114.854 779.31 80.009 C 778.726 80.294 778.114 80.532 777.481 80.718 C 776.822 85.99 771.515 85.99 770.857 80.718 Z"/><circle style="fill:#FFB312;" cx="774.168" cy="69.458" r="9.565"/><path style="fill:#A4D165;" d="M 701.734 61.106 C 702.259 61.303 702.766 61.536 703.253 61.803 C 717.689 28.532 677.559 28.533 691.995 61.803 C 692.481 61.536 692.989 61.303 693.514 61.106 C 693.404 53.601 701.845 53.601 701.734 61.106 Z"/><path style="fill:#A4D165;" d="M 688.555 64.657 C 688.871 64.272 689.212 63.91 689.574 63.569 C 662.39 39.551 649.986 77.72 686.09 74.272 C 685.977 73.674 685.911 73.061 685.894 72.435 C 678.953 70.152 681.546 62.307 688.555 64.657 Z"/><path style="fill:#A4D165;" d="M 687.779 78.483 C 687.496 78.049 687.241 77.596 687.016 77.124 C 655.783 95.555 688.248 119.143 696.125 83.742 C 695.529 83.665 694.947 83.544 694.382 83.382 C 690.107 89.002 683.674 84.294 687.779 78.483 Z"/><path style="fill:#A4D165;" d="M 700.866 83.381 C 700.301 83.544 699.719 83.665 699.123 83.741 C 707 119.142 739.466 95.555 708.232 77.124 C 708.008 77.595 707.752 78.048 707.469 78.482 C 711.574 84.294 705.141 89.002 700.866 83.381 Z"/><path style="fill:#A4D165;" d="M 706.694 64.657 C 713.702 62.307 716.295 70.152 709.355 72.435 C 709.337 73.061 709.271 73.675 709.159 74.273 C 745.262 77.721 732.858 39.551 705.674 63.569 C 706.036 63.91 706.378 64.272 706.694 64.657 Z"/><ellipse transform="matrix(0.267886, -0.963451, 0.963451, 0.267886, 446.213946, 336.23442)" style="fill:#A4D165;" cx="321.834" cy="171.47" rx="9.566" ry="9.566"/><path style="fill:#EF3D5A;" d="M 617.149 80.977 C 616.134 80.629 615.179 80.155 614.305 79.567 C 597.674 109.561 644.486 109.561 627.854 79.567 C 626.98 80.155 626.025 80.629 625.011 80.977 C 625.764 89.331 616.396 89.331 617.149 80.977 Z"/><path style="fill:#EF3D5A;" d="M 609.561 65.527 C 609.908 64.512 610.383 63.557 610.97 62.683 C 580.977 46.052 580.977 92.864 610.97 76.232 C 610.383 75.358 609.908 74.403 609.561 73.389 C 601.207 74.141 601.207 64.774 609.561 65.527 Z"/><path style="fill:#EF3D5A;" d="M 625.011 57.939 C 626.026 58.286 626.981 58.761 627.855 59.348 C 644.486 29.355 597.674 29.355 614.306 59.348 C 615.18 58.761 616.135 58.286 617.149 57.939 C 616.396 49.584 625.764 49.584 625.011 57.939 Z"/><path style="fill:#EF3D5A;" d="M 631.189 62.683 C 631.777 63.557 632.251 64.512 632.599 65.527 C 640.953 64.774 640.953 74.142 632.599 73.389 C 632.251 74.403 631.777 75.358 631.189 76.232 C 661.183 92.864 661.183 46.052 631.189 62.683 Z"/><circle style="fill:#EF3D5A;" cx="621.08" cy="69.458" r="9.565"/></svg>